<svg width="22" height="23" viewBox="0 0 22 23" fill="none" xmlns="http://www.w3.org/2000/svg">
<path d="M0.667461 11.6397C0.947161 12.3147 1.48531 12.9081 1.52442 13.6376C1.55673 14.2276 1.24897 14.8023 1.31018 15.3906C1.34334 15.7068 1.48107 16.001 1.58988 16.3002C1.92484 17.2167 1.99625 18.2063 2.23515 19.1525C2.47404 20.0987 2.93482 21.0611 3.78497 21.5389C4.38348 21.8747 5.10781 21.9274 5.78539 21.8194C6.46296 21.7115 7.10653 21.4539 7.74329 21.198L8.83573 20.7601C9.7675 20.3861 10.8038 19.9057 11.1192 18.9527C11.2663 18.5098 11.2374 18.0005 11.4993 17.6137C11.7322 17.2694 12.1428 17.1002 12.4735 16.8486C13.2769 16.2382 13.5753 15.1789 13.7564 14.1868C13.889 13.4573 13.9851 12.7219 14.0786 11.9857C14.2325 10.7708 14.3702 9.48797 13.8899 8.36151C13.5303 7.51816 12.8476 6.84144 12.0689 6.35686C11.2901 5.87312 10.4145 5.56706 9.53541 5.30862C8.27888 4.93965 6.96965 4.6591 5.66721 4.79257C3.99836 4.9643 2.41452 5.84676 1.39009 7.17555C0.94036 7.75961 0.691268 8.44058 0.617304 9.19211C0.53484 10.0372 0.322308 10.81 0.66662 11.6397H0.667461Z" fill="#F7EADD"/>
<path d="M0.207148 11.7661C0.376328 12.1682 0.604163 12.5337 0.806499 12.9189C0.849007 12.9996 0.888117 13.0812 0.926373 13.1646C0.947627 13.2113 0.919574 13.2037 0.917874 13.1442C0.917874 13.1595 0.936581 13.1909 0.942532 13.2071C0.962085 13.2598 0.979938 13.3125 0.995241 13.366C1.00799 13.4085 1.01904 13.4519 1.02839 13.4961C1.03349 13.5182 1.03689 13.5403 1.04114 13.5616C1.059 13.6457 1.0369 13.548 1.0386 13.5344C1.03265 13.5769 1.04795 13.6304 1.0488 13.6738C1.0505 13.7367 1.0488 13.7988 1.04455 13.8617C1.04285 13.8863 1.0403 13.9118 1.03775 13.9365C1.02925 14.0275 1.04029 13.9365 1.04029 13.922C1.04029 13.9756 1.02074 14.0368 1.01054 14.0895C0.988434 14.2017 0.962931 14.3123 0.938277 14.4236C0.885567 14.6608 0.838804 14.9023 0.826902 15.1454C0.804798 15.6317 1.00118 16.0525 1.15676 16.4997C1.45687 17.3618 1.53593 18.2774 1.74677 19.1615C1.93381 19.9479 2.25006 20.7207 2.78906 21.3337C3.38332 22.0095 4.24622 22.3369 5.13548 22.3445C6.0664 22.3522 6.94631 22.0265 7.79731 21.6856C8.22834 21.5131 8.65936 21.3422 9.08954 21.167C9.4466 21.0208 9.80367 20.8686 10.1395 20.6774C10.8196 20.2905 11.4173 19.7252 11.6187 18.9456C11.6681 18.756 11.6927 18.5613 11.7301 18.3692C11.7488 18.2748 11.7692 18.1805 11.7981 18.0878C11.8032 18.0725 11.85 17.9348 11.8253 18.0028C11.8024 18.0674 11.8279 17.9994 11.8355 17.9832C11.8508 17.9526 11.867 17.9237 11.884 17.8948C11.8959 17.8753 11.9095 17.8574 11.9206 17.8387C11.9529 17.7834 11.8619 17.9042 11.9052 17.8582C11.935 17.8268 11.9622 17.7936 11.9928 17.7639C12.0277 17.7299 12.0642 17.6984 12.1016 17.667C12.1416 17.633 12.1084 17.6355 12.0821 17.6814C12.0923 17.6627 12.1314 17.6457 12.1484 17.6338C12.3074 17.5233 12.4748 17.4272 12.633 17.3167C13.3284 16.8279 13.7382 16.0967 13.9839 15.2967C14.2466 14.4406 14.3503 13.5344 14.4685 12.6502C14.5866 11.7635 14.726 10.8657 14.6946 9.96883C14.6631 9.07617 14.4447 8.18946 13.9278 7.44983C13.4449 6.75866 12.7928 6.20776 12.06 5.79628C11.2557 5.34485 10.3707 5.049 9.48657 4.7965C8.56415 4.53296 7.61537 4.32722 6.65385 4.28726C4.951 4.21585 3.29745 4.7829 1.98736 5.8694C1.35485 6.39394 0.798848 7.04516 0.47749 7.80689C0.298958 8.22942 0.19949 8.66385 0.147631 9.11868C0.0957715 9.57351 0.0269149 9.98583 0.00481096 10.4211C-0.017293 10.8564 0.0345659 11.3427 0.206297 11.7661C0.254755 11.8859 0.310012 11.9837 0.425632 12.0517C0.527651 12.1112 0.678984 12.1367 0.793755 12.1002C1.0165 12.0279 1.22733 11.761 1.12701 11.5127C1.08705 11.4132 1.05135 11.3121 1.02414 11.2084C1.01054 11.1582 0.999486 11.108 0.989284 11.0579C0.984183 11.0332 0.979929 11.0077 0.975679 10.9831C0.951874 10.8581 0.984187 11.0859 0.972285 10.9601C0.952731 10.7552 0.951024 10.552 0.964626 10.3463C0.992681 9.92377 1.059 9.50295 1.10746 9.08212C1.11086 9.05237 1.10405 8.99796 1.1049 9.10168C1.1049 9.07957 1.11256 9.05152 1.11596 9.03026C1.12361 8.9835 1.13211 8.9359 1.14146 8.88914C1.16102 8.79052 1.18397 8.69275 1.21032 8.59584C1.23498 8.50572 1.26304 8.41645 1.29365 8.32804C1.30895 8.28383 1.3251 8.24047 1.3421 8.19711C1.34805 8.18181 1.37695 8.11125 1.35145 8.17331C1.32339 8.24047 1.36335 8.1478 1.3693 8.1342C1.45176 7.95397 1.54783 7.78054 1.65835 7.61561C1.68471 7.5765 1.71192 7.53739 1.73912 7.49914C1.74423 7.49234 1.78078 7.44133 1.78163 7.44218C1.78163 7.44218 1.71022 7.53229 1.76973 7.45748C1.82924 7.38267 1.88875 7.3104 1.94996 7.23899C2.19395 6.95844 2.4643 6.69999 2.7542 6.4679C2.77035 6.45515 2.79246 6.44155 2.80606 6.42625C2.79756 6.4356 2.72105 6.49086 2.78906 6.43985C2.82477 6.41349 2.86047 6.38629 2.89618 6.36078C2.97269 6.30552 3.05006 6.25196 3.12912 6.20011C3.28215 6.09979 3.43942 6.00542 3.60095 5.91785C3.67916 5.87535 3.75823 5.83539 3.83815 5.79628C3.92571 5.75377 4.02773 5.72232 4.11104 5.67131C4.10084 5.67811 4.00987 5.71297 4.08894 5.68066C4.10934 5.67216 4.12975 5.66366 4.15101 5.65601C4.19266 5.63985 4.23347 5.6237 4.27513 5.60755C4.35844 5.57609 4.44175 5.54719 4.52677 5.51913C4.70615 5.46047 4.88809 5.41031 5.07257 5.36781C5.15929 5.34825 5.246 5.3304 5.33356 5.31425C5.37692 5.30659 5.42113 5.29894 5.46449 5.29214C5.48659 5.28874 5.5087 5.28534 5.52995 5.28194C5.62092 5.26749 5.45684 5.29044 5.5189 5.28279C5.95673 5.23008 6.39626 5.21903 6.83664 5.24793C6.94376 5.25474 7.05088 5.26409 7.158 5.27514C7.21156 5.28109 7.26512 5.28704 7.31868 5.29299C7.34503 5.29639 7.37223 5.29894 7.39859 5.30319C7.33057 5.29214 7.36373 5.29894 7.41219 5.30574C7.63323 5.33805 7.85257 5.37716 8.07106 5.42307C8.93566 5.60245 9.79942 5.84984 10.6241 6.16865C10.6725 6.18735 10.7201 6.20606 10.7686 6.22561C10.7966 6.23666 10.9352 6.29022 10.8332 6.25196C10.9352 6.29107 11.0347 6.34038 11.1333 6.38714C11.3254 6.47811 11.5142 6.57672 11.697 6.68469C11.867 6.78501 12.0328 6.89298 12.1917 7.00945C12.2181 7.029 12.3329 7.10382 12.2291 7.03666C12.2666 7.06046 12.2997 7.09277 12.3346 7.12082C12.4085 7.18118 12.4799 7.24409 12.5505 7.3087C12.6865 7.43368 12.8149 7.56715 12.9348 7.70743C12.9637 7.74143 12.9917 7.77629 13.0198 7.81029C13.0734 7.87576 13.0121 7.80434 13.007 7.79244C13.0155 7.81029 13.0351 7.82985 13.047 7.846C13.1065 7.92677 13.1626 8.00923 13.2162 8.09424C13.2638 8.16991 13.308 8.24642 13.3497 8.32549C13.3709 8.36459 13.3905 8.40455 13.41 8.44451C13.4194 8.46491 13.4296 8.48447 13.4389 8.50487C13.4449 8.51762 13.4848 8.60604 13.4559 8.54143C13.427 8.47681 13.461 8.55418 13.467 8.56948C13.4763 8.59243 13.4848 8.61624 13.4942 8.64004C13.512 8.6868 13.5282 8.73441 13.5435 8.78202C13.5766 8.88234 13.6056 8.98521 13.6302 9.08807C13.6532 9.18499 13.6736 9.28276 13.6897 9.38053C13.694 9.40518 13.6974 9.42983 13.7016 9.45449C13.7169 9.54546 13.7042 9.45194 13.6999 9.43919C13.7178 9.49445 13.7152 9.56756 13.7203 9.62537C13.7399 9.83196 13.7467 10.0402 13.7458 10.2485C13.7433 10.6762 13.7059 11.1021 13.6574 11.5263C13.6328 11.7405 13.6056 11.9539 13.5784 12.1673C13.5639 12.2787 13.5494 12.3892 13.535 12.5006C13.5316 12.5286 13.5273 12.5558 13.5239 12.5839C13.5222 12.5984 13.5103 12.6868 13.5188 12.6247C13.5273 12.5626 13.5154 12.6511 13.5137 12.6655C13.5086 12.7004 13.5044 12.7352 13.4993 12.7692C13.4364 13.2258 13.3675 13.6814 13.2825 14.1337C13.2162 14.4874 13.1354 14.8385 13.0215 15.1794C12.9943 15.2619 12.9645 15.3435 12.9322 15.4234C12.9246 15.4438 12.9161 15.4634 12.9084 15.4838C12.8846 15.5441 12.9458 15.3996 12.9186 15.4591C12.8982 15.5025 12.8795 15.5467 12.8583 15.59C12.78 15.7516 12.6899 15.9088 12.5862 16.0551C12.5743 16.0721 12.5616 16.0891 12.5488 16.1061C12.5105 16.1588 12.565 16.1103 12.5658 16.084C12.5658 16.1069 12.5012 16.1622 12.485 16.18C12.4255 16.2472 12.3635 16.311 12.2972 16.3713C12.2657 16.4002 12.2326 16.4266 12.2002 16.4546C12.1518 16.4972 12.2734 16.4019 12.2206 16.4393C12.2028 16.4521 12.1849 16.4657 12.1671 16.4785C12.0906 16.5329 12.0115 16.583 11.9324 16.634C11.5754 16.861 11.2056 17.1067 11.0117 17.4978C10.8179 17.8889 10.8026 18.2842 10.698 18.688C10.6768 18.7713 10.6411 18.8495 10.6181 18.9311C10.6207 18.9218 10.6666 18.8266 10.6309 18.898C10.6224 18.9158 10.6139 18.9337 10.6054 18.9507C10.5858 18.9898 10.5646 19.0281 10.5424 19.0655C10.5229 19.0986 10.5016 19.1309 10.4804 19.1632C10.4719 19.176 10.3945 19.2874 10.4413 19.2202C10.488 19.153 10.4073 19.2593 10.3954 19.2729C10.3665 19.3061 10.3367 19.3375 10.3061 19.369C10.2508 19.4251 10.193 19.4786 10.1335 19.5288C10.1106 19.5484 10.0536 19.5781 10.0417 19.6036C10.0621 19.562 10.1131 19.5501 10.0672 19.5832C10.0426 19.6011 10.0188 19.6189 9.9941 19.6359C9.85638 19.7328 9.71185 19.8195 9.56392 19.8995C9.416 19.9794 9.26042 20.055 9.10484 20.1248C9.06743 20.1418 9.02918 20.1588 8.99177 20.1749C8.97307 20.1834 8.95436 20.1911 8.93481 20.1996C8.85914 20.2327 8.95437 20.1911 8.96372 20.1877C8.8787 20.2217 8.79454 20.2574 8.71038 20.2914C8.2853 20.4623 7.86022 20.6331 7.4343 20.8032C7.00837 20.9732 6.60965 21.1254 6.18117 21.2385C6.07915 21.2657 5.97714 21.2895 5.87342 21.3107C5.82156 21.3209 5.76969 21.3311 5.71783 21.3405C5.69233 21.3447 5.66682 21.349 5.64132 21.3532C5.5427 21.3685 5.62772 21.3388 5.64302 21.3532C5.63197 21.3422 5.5172 21.3668 5.4985 21.3685C5.45004 21.3728 5.40158 21.3762 5.35312 21.3787C5.2443 21.3838 5.13548 21.3855 5.02666 21.3813C4.9782 21.3796 4.92974 21.3762 4.88214 21.3728C4.84558 21.3702 4.77246 21.3473 4.73845 21.3575C4.75036 21.3541 4.84898 21.3762 4.75802 21.3592C4.73421 21.3549 4.7104 21.3515 4.68745 21.3464C4.63474 21.3362 4.58203 21.3252 4.52932 21.3116C4.43665 21.2886 4.34484 21.2606 4.25557 21.2274C4.23347 21.2189 4.21136 21.2104 4.18841 21.2019C4.12465 21.1781 4.26408 21.2385 4.20372 21.2078C4.15526 21.1832 4.10594 21.1619 4.05833 21.1356C3.98182 21.0948 3.90871 21.0489 3.8373 20.9996C3.82029 20.9877 3.80329 20.9749 3.78544 20.963C3.71828 20.9154 3.79904 20.9715 3.80669 20.98C3.77354 20.9418 3.72422 20.912 3.68597 20.878C3.62305 20.8219 3.56354 20.7624 3.50658 20.7003C3.47768 20.6689 3.45048 20.6374 3.42327 20.6051C3.40967 20.5889 3.39607 20.5728 3.38332 20.5558C3.32721 20.4886 3.42412 20.6127 3.39011 20.5643C3.28725 20.4206 3.19033 20.2735 3.10617 20.118C3.06536 20.0414 3.02625 19.9641 2.9897 19.8859C2.97269 19.8493 2.94464 19.8059 2.93614 19.7668C2.95569 19.8595 2.95994 19.8238 2.94634 19.7906C2.93443 19.76 2.92168 19.7303 2.91063 19.6997C2.61477 18.932 2.51871 18.1099 2.35718 17.309C2.27046 16.8772 2.16165 16.4521 2.00437 16.0406C1.92956 15.8451 1.84879 15.6496 1.80289 15.4438C1.79693 15.4192 1.79268 15.3945 1.78758 15.369C1.76632 15.2653 1.78758 15.3826 1.78843 15.3826C1.77143 15.369 1.78078 15.2551 1.77993 15.233C1.77993 15.1828 1.78162 15.1335 1.78503 15.0833C1.78673 15.0587 1.78928 15.034 1.79183 15.0085C1.80374 14.8827 1.77227 15.1106 1.79523 14.9864C1.87514 14.552 2.01797 14.1133 2.00352 13.667C1.98907 13.2207 1.82924 12.8058 1.62265 12.4147C1.53594 12.2515 1.44242 12.0917 1.35145 11.9301C1.30639 11.8494 1.26134 11.7686 1.21883 11.6861C1.19758 11.6453 1.17717 11.6045 1.15676 11.5629C1.14571 11.5391 1.07515 11.3792 1.12786 11.5042C1.07685 11.3843 1.02584 11.2874 0.908524 11.2186C0.806505 11.159 0.655171 11.1335 0.540401 11.1701C0.320211 11.2415 0.103429 11.511 0.207148 11.7576V11.7661Z" fill="#020202"/>
<path d="M11.2408 11.2494C11.2986 12.2381 11.8181 13.5201 12.8425 13.8534C13.6926 14.1297 13.7547 13.1792 13.9468 12.5204C14.1755 11.7357 14.3252 10.9221 14.3158 10.1025C14.3005 8.795 13.8414 7.44751 12.862 6.5795C11.9065 5.7319 10.5964 5.4352 9.34496 5.17675C8.24997 4.95061 7.14136 4.73042 6.02426 4.77803C4.5518 4.84094 3.10399 5.38504 1.95458 6.30745C1.69529 6.51574 1.44535 6.74953 1.29317 7.04539C0.727821 8.14548 2.57605 8.89447 3.4024 9.13081C4.5144 9.44792 5.71906 9.42581 6.84892 9.22093C7.47548 9.10786 8.09608 8.89362 8.62743 8.53825C9.21063 8.14718 9.68673 7.53847 10.3558 7.28173C11.1719 6.96887 11.5843 7.6524 11.5324 8.37247C11.4635 9.33485 11.183 10.276 11.24 11.2494H11.2408Z" fill="#020202"/>
<path d="M10.7635 11.2483C10.8409 12.4802 11.4692 13.9739 12.7708 14.3292C13.1304 14.427 13.4917 14.3717 13.779 14.1312C13.995 13.9509 14.1157 13.6746 14.2024 13.4136C14.2789 13.1807 14.3257 12.9384 14.3912 12.702C14.4966 12.3203 14.5969 11.9403 14.664 11.5501C14.9242 10.0445 14.7958 8.41898 13.9389 7.11144C13.5291 6.48658 12.9748 5.97819 12.3185 5.62198C11.6622 5.26576 10.954 5.04982 10.2365 4.88149C9.45942 4.69956 8.67133 4.53633 7.88154 4.42241C7.01523 4.29744 6.15828 4.25238 5.28943 4.37055C4.52769 4.47427 3.79316 4.70381 3.09858 5.03197C2.76787 5.18755 2.44991 5.36948 2.14811 5.57437C1.82675 5.79286 1.49944 6.03175 1.23504 6.31825C0.970645 6.60475 0.761511 6.94906 0.718154 7.34949C0.688398 7.61898 0.767457 7.89953 0.904332 8.13077C1.17808 8.59411 1.66522 8.91462 2.1379 9.14756C3.39358 9.76732 4.80313 9.94755 6.18888 9.79367C7.02033 9.70101 7.84073 9.53013 8.58121 9.12375C8.92213 8.93672 9.22478 8.69273 9.51723 8.43853C9.64476 8.32801 9.77227 8.21579 9.9032 8.10867C9.92785 8.08827 10.0443 8.01515 9.93891 8.07892C9.97206 8.05936 10.0018 8.03131 10.0333 8.0092C10.1055 7.95734 10.1795 7.90719 10.256 7.86213C10.3274 7.81962 10.4014 7.78136 10.4762 7.74481C10.4872 7.7397 10.5408 7.71675 10.4805 7.74226C10.4167 7.76861 10.4856 7.74141 10.5017 7.73545C10.5468 7.71845 10.5927 7.704 10.6394 7.69295C10.659 7.68785 10.7789 7.66489 10.6913 7.68019C10.6037 7.6955 10.7151 7.68019 10.7372 7.68019C10.7542 7.68019 10.7721 7.68189 10.7891 7.68189C10.8316 7.68189 10.8435 7.7091 10.7372 7.67339C10.767 7.68359 10.801 7.68615 10.8307 7.6955C10.8435 7.6989 10.8613 7.7091 10.8749 7.7108C10.8681 7.70995 10.7644 7.65469 10.8239 7.69125C10.8469 7.70485 10.8698 7.7176 10.8928 7.73205C10.9786 7.78476 10.8273 7.66829 10.8775 7.721C10.9004 7.74566 10.9251 7.77286 10.9497 7.79582C10.9829 7.82642 10.9098 7.74225 10.9115 7.74481C10.9174 7.75756 10.9302 7.77201 10.9387 7.78391C10.9565 7.81112 10.9727 7.83832 10.9871 7.86723C10.9922 7.87743 10.9973 7.89018 11.0033 7.90038C11.0348 7.94884 10.9659 7.79922 10.9846 7.85448C10.9973 7.89103 11.0109 7.92589 11.022 7.96244C11.039 8.02111 11.0441 8.08402 11.0611 8.14268C11.0211 8.01005 11.0552 8.10017 11.0586 8.15033C11.0611 8.18689 11.062 8.22429 11.062 8.26085C11.0611 8.45213 11.0331 8.64342 11.0109 8.83215C11.0041 8.88826 11.0144 8.81005 11.0152 8.80495C11.0118 8.8313 11.0075 8.85851 11.0041 8.88486C10.9965 8.93757 10.9888 8.99113 10.9803 9.04384C10.9642 9.15011 10.9472 9.25553 10.931 9.3618C10.8953 9.58964 10.8605 9.81748 10.8307 10.0453C10.7772 10.4449 10.744 10.8462 10.7661 11.2491C10.7797 11.4982 10.9761 11.7388 11.243 11.7261C11.4904 11.715 11.7344 11.5161 11.72 11.2491C11.7089 11.0476 11.7106 10.8462 11.7234 10.6447C11.7293 10.5512 11.737 10.4576 11.7463 10.3641C11.7514 10.3174 11.7565 10.2706 11.7616 10.2247C11.7642 10.2051 11.7667 10.1847 11.7693 10.1652C11.7693 10.1652 11.7871 10.0402 11.7761 10.1091C11.7659 10.1728 11.7795 10.0887 11.7812 10.0734C11.7837 10.0538 11.7871 10.0334 11.7897 10.0139C11.7965 9.9671 11.8033 9.9212 11.8109 9.87444C11.8271 9.76817 11.8441 9.66275 11.8602 9.55648C11.8951 9.33544 11.9283 9.1144 11.9572 8.89251C12.0048 8.53205 12.0422 8.18348 11.9699 7.82387C11.9113 7.53142 11.7625 7.22876 11.5346 7.03068C11.2345 6.76968 10.8732 6.69402 10.4856 6.75353C10.1429 6.80624 9.81308 6.99497 9.53593 7.19646C9.24263 7.40985 8.97654 7.65384 8.70024 7.88678C8.67048 7.91229 8.63987 7.93694 8.61012 7.96159C8.59311 7.97605 8.57526 7.98965 8.55826 8.00325C8.54891 8.0109 8.50299 8.04576 8.554 8.0075C8.60501 7.96925 8.55911 8.00325 8.54976 8.0109C8.53191 8.02451 8.51405 8.03726 8.4962 8.05001C8.46049 8.07552 8.42478 8.10102 8.38823 8.12567C8.2318 8.23024 8.06772 8.32291 7.89854 8.40367C7.85858 8.42238 7.81862 8.44023 7.77866 8.45893C7.72936 8.48189 7.80247 8.44958 7.80588 8.44788C7.78377 8.45893 7.75911 8.46744 7.73616 8.47594C7.64859 8.51079 7.56018 8.54225 7.47091 8.572C7.29238 8.63066 7.1096 8.67997 6.92597 8.71993C6.74234 8.75989 6.55955 8.79049 6.37506 8.81685C6.34871 8.82025 6.32321 8.8245 6.29685 8.8279C6.30196 8.8279 6.38187 8.8177 6.32576 8.82365C6.27985 8.82875 6.23394 8.8347 6.18803 8.8398C6.08346 8.8517 5.97805 8.86106 5.87263 8.86956C5.48411 8.89931 5.09304 8.90356 4.70452 8.87636C4.6127 8.86956 4.52088 8.86191 4.42906 8.8517C4.38315 8.8466 4.33725 8.8415 4.29134 8.83555C4.30834 8.8381 4.39166 8.85085 4.3007 8.83555C4.27434 8.8313 4.24883 8.8279 4.22248 8.82365C4.02779 8.79219 3.83481 8.75139 3.64437 8.70123C3.43353 8.64597 3.2261 8.57796 3.02292 8.50059C2.97191 8.48104 2.92175 8.46148 2.87159 8.44108C2.77977 8.40367 2.96001 8.48019 2.88604 8.44788C2.85629 8.43513 2.82653 8.42238 2.79677 8.40878C2.6837 8.35777 2.57233 8.30421 2.46351 8.2447C2.35469 8.18518 2.25522 8.12737 2.15661 8.06106C2.10985 8.02961 2.06479 7.9956 2.01888 7.96414C1.97297 7.93269 2.10305 8.03301 2.05885 7.9956C2.05034 7.98795 2.04014 7.98115 2.03164 7.9735C2.00783 7.95394 1.98403 7.93439 1.96108 7.91399C1.91857 7.87658 1.87861 7.83747 1.8395 7.79666C1.82165 7.77796 1.80465 7.75926 1.78849 7.7397C1.78169 7.7312 1.77489 7.7227 1.76809 7.71505C1.71708 7.65639 1.78849 7.7363 1.79699 7.75331C1.77574 7.71165 1.74174 7.67339 1.71793 7.63259C1.70603 7.61218 1.69668 7.59093 1.68563 7.57052C1.64312 7.49061 1.72473 7.68955 1.69243 7.58413C1.68647 7.56287 1.64567 7.46851 1.65927 7.4515C1.65077 7.4617 1.67202 7.59773 1.66692 7.49061C1.66522 7.46426 1.66607 7.4379 1.66692 7.4107C1.66692 7.40049 1.66862 7.39029 1.66947 7.38009C1.66947 7.30613 1.66352 7.4532 1.66012 7.44555C1.65417 7.4294 1.67118 7.39029 1.67628 7.37329C1.68308 7.34863 1.69072 7.32398 1.69922 7.30018C1.70432 7.28657 1.71113 7.27212 1.71538 7.25767C1.71198 7.26957 1.66437 7.36224 1.69583 7.30698C1.73579 7.23812 1.77319 7.16925 1.8174 7.10294C1.865 7.03068 1.81399 7.10294 1.80634 7.11399C1.81824 7.09529 1.83695 7.07574 1.8514 7.05873C1.88201 7.02218 1.91431 6.98732 1.94747 6.95331C2.06819 6.82834 2.20166 6.71952 2.33599 6.60985C2.3887 6.56649 2.27052 6.65916 2.32493 6.61835C2.33939 6.6073 2.35384 6.59625 2.36829 6.58605C2.40655 6.55714 2.44482 6.52909 2.48392 6.50103C2.55704 6.44832 2.631 6.39731 2.70581 6.34801C2.85034 6.25194 2.99911 6.16182 3.15044 6.07681C3.30177 5.99179 3.46755 5.90763 3.63078 5.83196C3.66903 5.81411 3.70729 5.79711 3.74555 5.7801C3.7617 5.77245 3.7787 5.76565 3.79485 5.75885C3.87477 5.72399 3.79316 5.75885 3.7804 5.7648C3.85947 5.72484 3.94873 5.69679 4.0312 5.66618C4.36276 5.54376 4.70281 5.44599 5.04883 5.37373C5.13129 5.35673 5.21291 5.34142 5.29622 5.32697C5.34383 5.31932 5.39059 5.31167 5.4382 5.30402C5.45606 5.30147 5.4739 5.29892 5.49175 5.29637C5.56061 5.28616 5.37189 5.31082 5.48921 5.29637C5.66179 5.27681 5.83437 5.26066 6.00865 5.25301C6.41332 5.23431 6.8197 5.25216 7.22267 5.29212C7.31874 5.30147 7.41481 5.31252 7.51002 5.32442C7.53723 5.32782 7.56443 5.33122 7.59249 5.33462C7.58654 5.33377 7.51172 5.32357 7.56783 5.33122C7.62904 5.34057 7.6911 5.34908 7.75232 5.35843C7.9504 5.38903 8.14848 5.42304 8.34487 5.4596C9.06325 5.59307 9.78673 5.7342 10.4915 5.92803C10.6539 5.97309 10.8146 6.0207 10.9735 6.07426C11.0552 6.10146 11.1368 6.13037 11.2184 6.16097C11.2558 6.17542 11.2932 6.18903 11.3306 6.20433C11.3468 6.21028 11.3629 6.21708 11.3782 6.22388C11.4352 6.24684 11.4284 6.24174 11.3757 6.22218C11.686 6.3378 11.9878 6.51463 12.2581 6.70337C12.2904 6.72632 12.3227 6.75013 12.355 6.77308C12.3899 6.79774 12.3822 6.81899 12.3397 6.76033C12.3482 6.77223 12.3686 6.78328 12.3797 6.79263C12.446 6.84619 12.5106 6.90145 12.5735 6.95926C12.6951 7.07148 12.809 7.19136 12.9153 7.31803C12.9297 7.33503 12.9433 7.35204 12.9569 7.36904C12.9646 7.37839 12.9995 7.4243 12.9604 7.37244C12.9212 7.32058 12.9561 7.36649 12.9629 7.37669C12.9756 7.39454 12.9893 7.41155 13.002 7.4294C13.0505 7.49571 13.0972 7.56372 13.1414 7.63344C13.2307 7.77286 13.3115 7.91739 13.3837 8.06531C13.4007 8.10017 13.4177 8.13503 13.433 8.16988C13.4424 8.19029 13.4509 8.20984 13.4602 8.23024C13.4653 8.2413 13.4874 8.29485 13.4628 8.23449C13.4381 8.17413 13.4594 8.22684 13.4645 8.23874C13.473 8.25915 13.4815 8.27955 13.4891 8.30081C13.5053 8.34246 13.5206 8.38327 13.5359 8.42578C13.5929 8.58306 13.6413 8.74289 13.683 8.90441C13.7246 9.06594 13.7561 9.21982 13.7816 9.37965C13.7875 9.41791 13.7909 9.45786 13.7995 9.49527C13.7697 9.36095 13.7994 9.50207 13.8028 9.53438C13.8122 9.61769 13.819 9.70101 13.8249 9.78432C13.8496 10.1575 13.8377 10.5325 13.7986 10.904C13.7935 10.9507 13.7875 10.9975 13.7824 11.0434C13.7765 11.0995 13.7858 11.0213 13.7867 11.0162C13.7833 11.0425 13.779 11.0698 13.7756 11.0961C13.7612 11.1956 13.7442 11.295 13.7263 11.3937C13.6898 11.5917 13.6464 11.7881 13.5971 11.9837C13.5257 12.2676 13.4441 12.549 13.3735 12.8338C13.3455 12.9469 13.3157 13.06 13.2783 13.1705C13.2698 13.196 13.2604 13.2215 13.2511 13.247C13.246 13.2606 13.2383 13.275 13.2349 13.2895C13.2324 13.2989 13.2834 13.1832 13.2613 13.2266C13.2375 13.2742 13.2162 13.3227 13.1882 13.3686C13.1746 13.3907 13.155 13.4128 13.1431 13.4357C13.1423 13.4383 13.2171 13.3533 13.1873 13.3771C13.178 13.3847 13.1703 13.3966 13.161 13.4051C13.1457 13.4204 13.1253 13.4332 13.1125 13.4502C13.1125 13.4502 13.2043 13.3907 13.1712 13.4034C13.1576 13.4085 13.144 13.4204 13.1312 13.4281C13.1261 13.4315 13.1006 13.4459 13.0972 13.4451C13.0802 13.4383 13.2162 13.4119 13.1669 13.4145C13.1516 13.4145 13.1151 13.4383 13.0998 13.4315C13.093 13.4289 13.2409 13.4221 13.1644 13.4221C13.1533 13.4221 13.1423 13.423 13.1321 13.4238C13.1168 13.4238 13.1023 13.4238 13.087 13.4238C13.0394 13.4238 13.0199 13.3949 13.1295 13.4323C13.0692 13.4119 13.0046 13.4051 12.9433 13.3839C12.9246 13.3779 12.8192 13.3354 12.8974 13.3686C12.9757 13.4017 12.8643 13.3524 12.8422 13.3405C12.7852 13.3116 12.7308 13.2793 12.6772 13.2444C12.6509 13.2266 12.6245 13.2079 12.599 13.19C12.5353 13.1458 12.6262 13.2087 12.6305 13.2147C12.6203 13.2019 12.6007 13.1909 12.588 13.1798C12.4817 13.0897 12.389 12.9885 12.2989 12.8831C12.2454 12.8202 12.3567 12.9656 12.2964 12.8797C12.2777 12.8525 12.2581 12.8262 12.2394 12.799C12.1969 12.7361 12.157 12.6714 12.1195 12.606C12.0864 12.5482 12.0549 12.4887 12.026 12.4283C12.0116 12.3985 11.9971 12.3679 11.9835 12.3373C11.9776 12.3246 11.9716 12.311 11.9657 12.2982C11.9308 12.22 11.9963 12.3747 11.975 12.3195C11.9249 12.1903 11.8781 12.0602 11.8407 11.9267C11.8033 11.7932 11.7735 11.6649 11.7506 11.5314C11.7455 11.4999 11.7404 11.4685 11.7353 11.437C11.7217 11.3537 11.748 11.5594 11.7361 11.4438C11.7293 11.3792 11.7234 11.3137 11.7191 11.2483C11.7038 10.9992 11.5108 10.7586 11.2422 10.7713C10.9965 10.7824 10.7482 10.9822 10.7653 11.2483H10.7635Z" fill="#020202"/>
<path d="M1.41834 13.3368C1.99644 13.4983 2.64936 13.5306 3.23512 13.3861C3.54117 13.3104 3.82852 13.1531 4.10312 13.001C4.39812 12.8377 4.68548 12.6439 4.92692 12.4059C5.20832 12.1287 5.42766 11.7869 5.53647 11.4052L4.59875 11.2785C4.56645 11.7648 4.56816 12.3072 4.87166 12.7187C5.17516 13.1302 5.6572 13.4065 6.15113 13.5578C6.60171 13.6955 7.08715 13.7312 7.55644 13.721C8.05378 13.71 8.55197 13.642 9.0323 13.5136C9.5764 13.3682 10.1035 13.1463 10.5974 12.876C10.8168 12.7561 10.906 12.4356 10.7683 12.2231C10.6306 12.0105 10.35 11.923 10.1154 12.0522C9.92156 12.1585 9.72348 12.2537 9.52199 12.3429C9.45823 12.371 9.5968 12.3132 9.53134 12.3387C9.50754 12.348 9.48459 12.3574 9.46078 12.3667C9.40807 12.388 9.35451 12.4076 9.3018 12.4271C9.20064 12.4637 9.09947 12.4985 8.9966 12.53C8.78576 12.5954 8.57067 12.649 8.35388 12.6898C8.30457 12.6992 8.25441 12.7077 8.20511 12.7162C8.18045 12.7204 8.15495 12.7238 8.13029 12.7272C8.03592 12.7417 8.13455 12.7306 8.14475 12.7255C8.10819 12.7442 8.03508 12.7383 7.99427 12.7425C7.93136 12.7485 7.86845 12.7536 7.80554 12.757C7.60575 12.7689 7.40426 12.7723 7.20447 12.7646C7.10501 12.7612 7.00639 12.7544 6.90692 12.7442C6.88397 12.7417 6.86102 12.7391 6.83721 12.7366C6.76325 12.7289 6.95708 12.757 6.84316 12.7366C6.7913 12.7272 6.7403 12.7196 6.68929 12.7094C6.59322 12.6898 6.498 12.666 6.40364 12.6379C6.35943 12.6243 6.31607 12.6099 6.27271 12.5946C6.25061 12.5869 6.22935 12.5784 6.2081 12.5699C6.11628 12.5351 6.29056 12.6116 6.19449 12.564C6.11118 12.5223 6.02786 12.4815 5.9488 12.4322C5.90884 12.4076 5.86973 12.3803 5.83062 12.354C5.74731 12.2987 5.84423 12.3642 5.84253 12.365C5.83658 12.3676 5.76772 12.3013 5.76177 12.2962C5.75157 12.2868 5.63424 12.178 5.64104 12.1687C5.64614 12.1619 5.70311 12.269 5.6538 12.1797C5.64019 12.1551 5.62404 12.1313 5.61044 12.1057C5.60279 12.0904 5.57133 12.0224 5.59853 12.0862C5.62829 12.1551 5.58664 12.0462 5.58239 12.0318C5.56793 11.9825 5.55773 11.9332 5.54668 11.883C5.52712 11.7929 5.54583 11.9017 5.54923 11.9077C5.53648 11.883 5.54243 11.8328 5.53988 11.8039C5.53648 11.7453 5.53562 11.6875 5.53562 11.6288C5.53562 11.5123 5.54328 11.3959 5.55093 11.2794C5.56623 11.0431 5.3571 10.8399 5.13691 10.811C4.90312 10.7795 4.67867 10.9223 4.61321 11.1527C4.60046 11.1969 4.58601 11.2394 4.57155 11.2828C4.552 11.3321 4.5554 11.3253 4.5809 11.2632C4.57155 11.2837 4.5622 11.3041 4.55115 11.3245C4.51544 11.395 4.47463 11.4639 4.42872 11.5293C4.41597 11.548 4.40237 11.5668 4.38877 11.5846C4.42873 11.5336 4.43298 11.5285 4.39982 11.5685C4.36922 11.6025 4.34032 11.6382 4.30886 11.6713C4.2536 11.73 4.19579 11.7852 4.13543 11.8371C4.11842 11.8516 4.00025 11.9544 4.09122 11.8762C4.05381 11.9085 4.01046 11.9357 3.96965 11.9638C3.89739 12.0131 3.82342 12.0598 3.7486 12.104C3.58707 12.1993 3.4196 12.2851 3.25212 12.3684C3.21641 12.3863 3.16455 12.4008 3.13309 12.4254C3.2028 12.3965 3.21386 12.3914 3.16625 12.4101L3.1382 12.4203C3.06083 12.4475 2.98177 12.4679 2.9027 12.4849C2.8925 12.4866 2.77858 12.5113 2.77773 12.507C2.77858 12.5104 2.8993 12.4934 2.77603 12.507C2.68847 12.5164 2.60005 12.5206 2.51249 12.5223C2.43512 12.5232 2.35691 12.5223 2.27955 12.5181C2.25319 12.5164 2.02449 12.5147 2.01854 12.4951C2.08741 12.5045 2.10271 12.507 2.06616 12.5011C2.05085 12.4985 2.0347 12.4968 2.01939 12.4943C1.97859 12.4875 1.93779 12.4807 1.89783 12.4722C1.82131 12.4569 1.74565 12.439 1.67083 12.4178C1.43024 12.3506 1.14034 12.5002 1.08338 12.751C1.02642 13.0018 1.15904 13.2662 1.41664 13.3385L1.41834 13.3368Z" fill="#020202"/>
<path d="M3.59375 14.5407C3.57419 14.3647 3.51808 14.1521 3.30554 14.17C3.12786 14.1845 3.05391 14.3434 3.025 14.499C2.98079 14.7439 2.98249 14.9972 3.03095 15.242C3.04625 15.3194 3.06665 15.3976 3.11341 15.4605C3.16017 15.5234 3.23753 15.5693 3.31575 15.5566C3.41266 15.5413 3.47643 15.4469 3.51384 15.356C3.62011 15.1009 3.62435 14.8144 3.59375 14.5398V14.5407Z" fill="#020202"/>
<path d="M3.68851 14.5401C3.66556 14.3395 3.59755 14.0989 3.36036 14.0751C3.24559 14.0632 3.12827 14.1099 3.05345 14.1983C2.97864 14.2868 2.94378 14.3998 2.92593 14.5138C2.90213 14.6617 2.89192 14.8122 2.90042 14.9618C2.90892 15.1114 2.92253 15.2695 2.97779 15.4073C3.02795 15.5331 3.12742 15.6402 3.2694 15.653C3.39777 15.664 3.50148 15.5764 3.56269 15.4719C3.72252 15.1998 3.72167 14.8436 3.68851 14.5401C3.68256 14.4891 3.64856 14.4449 3.5933 14.4449C3.54569 14.4449 3.49213 14.4891 3.49808 14.5401C3.52189 14.7586 3.52699 14.9839 3.46748 15.1981C3.44537 15.2789 3.41562 15.3826 3.34845 15.4379C3.28129 15.4931 3.21158 15.4438 3.17587 15.3818C3.12231 15.2891 3.10957 15.1667 3.09851 15.0621C3.08661 14.9448 3.08406 14.8266 3.09341 14.7093C3.10276 14.575 3.11296 14.325 3.27194 14.2732C3.43942 14.2179 3.48278 14.4117 3.49808 14.541C3.50403 14.592 3.53804 14.6362 3.5933 14.6362C3.64006 14.6362 3.69447 14.592 3.68851 14.541V14.5401Z" fill="#020202"/>
<path d="M7.64258 14.4645C7.62302 14.2885 7.56691 14.076 7.35437 14.0938C7.17669 14.1083 7.10273 14.2673 7.07383 14.4228C7.02962 14.6677 7.03132 14.921 7.07977 15.1659C7.09508 15.2432 7.11548 15.3214 7.16224 15.3844C7.209 15.4473 7.28636 15.4932 7.36457 15.4804C7.46149 15.4651 7.52526 15.3708 7.56267 15.2798C7.66893 15.0247 7.67318 14.7382 7.64258 14.4636V14.4645Z" fill="#020202"/>
<path d="M7.73734 14.4639C7.71439 14.2633 7.64638 14.0227 7.40919 13.9989C7.29441 13.987 7.17709 14.0338 7.10228 14.1222C7.02747 14.2106 6.99261 14.3237 6.97476 14.4376C6.95095 14.5855 6.94075 14.736 6.94925 14.8856C6.95775 15.0352 6.97136 15.1934 7.02662 15.3311C7.07678 15.4569 7.17625 15.564 7.31822 15.5768C7.4466 15.5878 7.55031 15.5003 7.61152 15.3957C7.77135 15.1237 7.7705 14.7674 7.73734 14.4639C7.73139 14.4129 7.69739 14.3687 7.64213 14.3687C7.59452 14.3687 7.54096 14.4129 7.54691 14.4639C7.57071 14.6824 7.57582 14.9077 7.51631 15.122C7.4942 15.2027 7.46444 15.3064 7.39728 15.3617C7.33012 15.417 7.2604 15.3676 7.2247 15.3056C7.17114 15.2129 7.15839 15.0905 7.14734 14.9859C7.13544 14.8686 7.13288 14.7504 7.14224 14.6331C7.15159 14.4988 7.16179 14.2488 7.32077 14.197C7.48825 14.1417 7.53161 14.3356 7.54691 14.4648C7.55286 14.5158 7.58687 14.56 7.64213 14.56C7.68888 14.56 7.74329 14.5158 7.73734 14.4648V14.4639Z" fill="#020202"/>
<path d="M11.91 4.14127C12.6216 4.11832 13.6231 4.01885 13.8441 3.1857C14.0354 2.46392 13.3434 1.91047 12.7917 1.60271C11.1441 0.683699 9.09349 0.268825 7.23506 0.0868924C6.16812 -0.0176764 4.82659 -0.123945 3.84381 0.386146C3.37283 0.63099 3.04041 1.13853 3.2572 1.67073C3.55306 2.39846 4.6642 2.77678 5.33327 3.04882C7.37023 3.87857 9.72091 4.18718 11.91 4.14212C12.4567 4.13107 12.4584 3.28092 11.91 3.29197C10.3755 3.32342 8.8104 3.15169 7.31838 2.78953C6.61616 2.6195 5.91818 2.40101 5.26101 2.0992C4.9592 1.96063 4.6574 1.81015 4.3777 1.63162C4.20597 1.52195 3.95943 1.41313 4.10736 1.22355C4.29439 0.982103 4.86909 0.944696 5.13944 0.915791C5.59002 0.868183 6.04655 0.867332 6.49798 0.886036C7.81742 0.940446 9.13175 1.19209 10.3934 1.57466C11.1288 1.7974 11.9262 2.03629 12.5723 2.46392C12.7347 2.57104 13.1147 2.80568 12.9846 3.04032C12.8274 3.32342 12.1711 3.28432 11.9092 3.29282C11.3634 3.31067 11.3609 4.16082 11.9092 4.14297L11.91 4.14127Z" fill="#020202"/>
<path d="M3.46827 18.1361C3.84829 18.4915 4.30822 18.7627 4.81661 18.8834C5.325 19.0041 5.81129 18.9871 6.29927 18.8749C7.27865 18.6487 8.13221 18.0179 8.72987 17.2247C9.04782 16.8022 9.28672 16.304 9.39724 15.7854C9.44909 15.5414 9.32582 15.2575 9.06397 15.198C8.82423 15.1436 8.53178 15.2702 8.47652 15.5312C8.45527 15.6315 8.42891 15.7319 8.39831 15.8296C8.38215 15.8789 8.366 15.9274 8.3473 15.9759C8.33795 16.0005 8.32859 16.0243 8.31924 16.0481C8.28778 16.1289 8.366 15.9453 8.3269 16.0303C8.23933 16.2216 8.13985 16.406 8.02168 16.5803C7.99193 16.6245 7.96133 16.6679 7.92987 16.7104C7.91032 16.7376 7.84656 16.8039 7.94007 16.6985C7.92222 16.718 7.90692 16.7401 7.88992 16.7606C7.82275 16.843 7.75134 16.9229 7.67738 17.0003C7.60341 17.0777 7.52605 17.1516 7.44614 17.2222C7.41298 17.2519 7.37897 17.2808 7.34497 17.3089C7.32456 17.3259 7.30331 17.3429 7.28291 17.3599C7.21829 17.4126 7.37812 17.2893 7.27356 17.3667C7.10353 17.4934 6.9233 17.6065 6.73456 17.7042C6.6878 17.728 6.64019 17.7518 6.59258 17.7739C6.56878 17.785 6.54498 17.7952 6.52117 17.8062C6.43191 17.8462 6.62999 17.7637 6.53902 17.7986C6.44211 17.836 6.34519 17.8717 6.24572 17.9015C6.14626 17.9312 6.04764 17.9559 5.94647 17.9754C5.90481 17.9839 5.86316 17.9899 5.82065 17.9975C5.72458 18.0137 5.94391 17.9839 5.847 17.9941C5.81299 17.9975 5.77984 18.0018 5.74583 18.0043C5.65402 18.012 5.56135 18.0145 5.46868 18.0128C5.41852 18.012 5.36836 18.0094 5.31821 18.0052C5.2927 18.0035 5.26805 18.0001 5.24339 17.9984C5.15753 17.9907 5.37432 18.0196 5.24509 17.9984C5.13627 17.9805 5.02915 17.9559 4.92458 17.9244C4.86762 17.9066 4.81066 17.887 4.75455 17.8657C4.71715 17.8513 4.65508 17.8062 4.7724 17.8743C4.74265 17.8572 4.70864 17.8453 4.67719 17.83C4.57262 17.779 4.4723 17.7195 4.37623 17.6541C4.35328 17.6388 4.33118 17.6226 4.30907 17.6065C4.29377 17.5954 4.27932 17.5843 4.26486 17.5733C4.32438 17.6192 4.33458 17.6269 4.29547 17.5954C4.24446 17.552 4.19345 17.5087 4.14414 17.4628C3.96136 17.2919 3.64766 17.2681 3.46912 17.4628C3.29059 17.6575 3.27444 17.9559 3.46912 18.1378L3.46827 18.1361Z" fill="#020202"/>
<path d="M20.7951 13.9849C21.0212 14.143 21.2091 14.3487 21.3273 14.5987C22.5387 17.1695 16.5188 16.9119 15.2699 17.2273C16.2187 16.9876 17.2584 17.0684 18.18 17.3838C18.7649 17.5844 19.8922 18.0911 20.0393 18.7933C20.3717 20.378 16.0019 19.5763 15.2691 19.2711C16.2867 19.4913 17.0255 20.5931 16.8444 21.6184C16.8257 21.7229 16.7968 21.8301 16.728 21.91C16.6633 21.9839 16.5715 22.0273 16.4789 22.0613C15.3482 22.4838 14.1086 21.8522 13.1293 21.1457C12.5121 20.7002 11.905 20.1969 11.5514 19.5228C11.2419 18.9336 11.0863 17.9831 11.6058 17.473C12.4517 16.6433 13.6487 16.3015 14.5805 15.6129C15.6695 14.8078 16.8657 14.1846 18.1724 13.8157C18.7411 13.655 19.3379 13.5419 19.9211 13.6354C20.2314 13.6856 20.5383 13.8029 20.7951 13.9823V13.9849Z" fill="#F7EADD"/>
<path d="M20.5539 14.3972L20.5819 14.4176C20.6236 14.449 20.6185 14.4448 20.5666 14.4057C20.5921 14.415 20.6245 14.455 20.644 14.4728C20.6942 14.5196 20.7392 14.5697 20.7851 14.6207C20.8123 14.6513 20.8344 14.6479 20.7732 14.6046C20.7953 14.6199 20.8166 14.6667 20.831 14.6896C20.8684 14.7491 20.8982 14.8103 20.9288 14.8732C20.9773 14.9727 20.8846 14.7551 20.922 14.8571C20.9339 14.8885 20.9458 14.92 20.956 14.9523C20.9756 15.0118 20.9917 15.0722 21.0036 15.1342C21.0062 15.1487 21.0087 15.1631 21.0113 15.1776C21.024 15.2473 20.9977 15.0467 21.0011 15.1011C21.0028 15.1266 21.0062 15.1521 21.007 15.1784C21.0096 15.2329 21.0053 15.2856 21.0028 15.3391C20.9994 15.408 21.0274 15.1963 21.013 15.2635C21.0104 15.2762 21.0087 15.289 21.0062 15.3009C21.0019 15.3213 20.9968 15.3425 20.9917 15.3629C20.9849 15.3876 20.9764 15.4105 20.9688 15.4343C20.9339 15.5398 21.024 15.3221 20.9832 15.4012C20.9594 15.4462 20.9373 15.4905 20.9084 15.5321C20.8965 15.55 20.8829 15.5661 20.871 15.584C20.9688 15.4301 20.9152 15.5279 20.8795 15.5678C20.8463 15.6044 20.8115 15.6392 20.7749 15.6715C20.7579 15.6868 20.7401 15.7013 20.7222 15.7166C20.6304 15.7948 20.8276 15.6401 20.729 15.7115C20.6304 15.7829 20.5343 15.8382 20.4306 15.8917C20.3779 15.9189 20.3243 15.9444 20.2699 15.9682C20.1501 16.0218 20.3736 15.9274 20.2759 15.9657C20.2436 15.9784 20.2121 15.9912 20.1798 16.0031C19.6196 16.2148 19.0219 16.3244 18.4311 16.4095C18.3902 16.4154 18.3494 16.4205 18.3086 16.4265C18.4948 16.3984 18.3358 16.4231 18.2925 16.4282C18.2109 16.4384 18.1293 16.4486 18.0476 16.4579C17.8929 16.4758 17.7373 16.4919 17.5826 16.5072C17.2885 16.5361 16.9943 16.5608 16.7001 16.5854C16.185 16.628 15.6442 16.6416 15.1418 16.7674C14.8995 16.8277 14.7303 17.1134 14.8086 17.3548C14.8868 17.5963 15.1359 17.7527 15.396 17.6881C15.5397 17.6524 15.697 17.6056 15.8457 17.5988C15.7216 17.6048 15.8483 17.5988 15.8704 17.5963C15.9019 17.5929 15.9342 17.5895 15.9656 17.5869C16.0481 17.5793 16.1314 17.5733 16.2147 17.5699C16.3618 17.564 16.5097 17.564 16.6576 17.5708C16.7282 17.5742 16.7988 17.5784 16.8693 17.5844C16.9076 17.5878 16.9458 17.5912 16.9841 17.5954C17.0079 17.598 17.1771 17.6116 17.0487 17.6022C17.342 17.6226 17.6472 17.7144 17.9261 17.802C18.0221 17.8326 18.1182 17.8658 18.2126 17.9015C18.2568 17.9185 18.301 17.9355 18.3452 17.9533C18.3605 17.9593 18.3758 17.9661 18.3911 17.972C18.2423 17.9159 18.3622 17.9601 18.3953 17.9746C18.5985 18.0639 18.7966 18.165 18.9854 18.2824C19.0729 18.3368 19.1528 18.4031 19.2404 18.4575C19.1273 18.3878 19.2021 18.4277 19.2302 18.4515C19.2506 18.4685 19.2719 18.4864 19.2914 18.5042C19.3373 18.545 19.3815 18.5884 19.4232 18.6335C19.4555 18.6683 19.5218 18.7822 19.4461 18.6539C19.4708 18.6955 19.5022 18.7338 19.5269 18.7754C19.5388 18.7958 19.549 18.8171 19.5601 18.8384C19.6026 18.9183 19.5218 18.7244 19.5482 18.8103C19.5609 18.852 19.5745 18.8919 19.583 18.9353C19.606 19.0551 19.5779 18.8103 19.5788 18.9055C19.5788 18.9319 19.5813 18.9574 19.5805 18.9837C19.5779 19.0407 19.5431 19.0908 19.5907 18.9302C19.583 18.9565 19.5788 18.9837 19.572 19.0101C19.5448 19.1121 19.6332 18.8962 19.5898 18.9701C19.5805 18.9863 19.572 19.0033 19.5618 19.0194C19.5558 19.0288 19.5482 19.0381 19.5431 19.0475C19.5099 19.1019 19.634 18.9421 19.589 18.9871C19.5694 19.0067 19.5524 19.0279 19.532 19.0466C19.4954 19.0806 19.4274 19.1087 19.5728 19.0186C19.5516 19.0322 19.532 19.0483 19.5099 19.0619C19.464 19.0908 19.4155 19.1138 19.3671 19.1376C19.3033 19.1682 19.4954 19.0874 19.4283 19.1112C19.4147 19.1164 19.4011 19.1215 19.3875 19.1266C19.3594 19.1368 19.3305 19.1461 19.3016 19.1555C19.2404 19.1742 19.1783 19.1903 19.1154 19.2031C19.0525 19.2158 18.9922 19.2269 18.9301 19.2362C18.891 19.2422 18.8153 19.2456 18.9862 19.2286C18.9684 19.2303 18.9505 19.2328 18.9326 19.2354C18.8893 19.2405 18.8468 19.2447 18.8034 19.2481C18.4889 19.2745 18.1709 19.2702 17.8564 19.2524C17.6872 19.243 17.518 19.2286 17.3497 19.2107C17.2732 19.2022 17.1966 19.1937 17.1193 19.1844C17.0759 19.1793 16.9152 19.1538 17.1014 19.1827C17.0606 19.1767 17.0198 19.1716 16.979 19.1657C16.6559 19.1189 16.3337 19.0602 16.0149 18.9871C15.8075 18.9395 15.5949 18.8911 15.3969 18.8094L15.1427 19.7302C15.2141 19.7463 15.2846 19.7659 15.3543 19.7897C15.385 19.8007 15.4181 19.8203 15.4496 19.8262C15.3611 19.8101 15.3782 19.7939 15.4156 19.8135C15.4368 19.8245 15.4589 19.8347 15.481 19.8458C15.5414 19.8772 15.6 19.9112 15.657 19.9487C15.6893 19.9699 15.7208 19.9937 15.7531 20.015C15.7956 20.0439 15.7131 19.9835 15.7148 19.9844C15.7318 20.0014 15.7531 20.015 15.7709 20.0311C15.827 20.0787 15.8797 20.1289 15.9308 20.1816C15.9546 20.2062 15.9775 20.2318 15.9996 20.2573C16.0251 20.287 16.0974 20.4018 16.0268 20.2862C16.1042 20.412 16.1909 20.5276 16.2547 20.6619C16.2564 20.6662 16.2717 20.7104 16.2793 20.7155C16.2742 20.7112 16.236 20.605 16.2657 20.6823C16.2776 20.7146 16.2904 20.7461 16.3014 20.7784C16.3269 20.8524 16.3482 20.9272 16.3652 21.0028C16.3728 21.036 16.3779 21.07 16.3847 21.1032C16.4017 21.1873 16.3745 20.9969 16.3847 21.1066C16.3924 21.1839 16.3958 21.2621 16.3941 21.3395C16.3941 21.3735 16.3915 21.4075 16.389 21.4415C16.389 21.45 16.3805 21.4883 16.3839 21.5002C16.3813 21.4925 16.4043 21.3786 16.389 21.4602C16.3822 21.4959 16.3762 21.5325 16.3677 21.5673C16.3626 21.5877 16.3541 21.6081 16.3499 21.6286C16.3397 21.6745 16.4068 21.5427 16.3524 21.615C16.3533 21.6141 16.417 21.5461 16.3788 21.5809C16.332 21.6243 16.457 21.5384 16.4 21.5682C16.3813 21.5784 16.3609 21.5886 16.3431 21.6005C16.3023 21.6277 16.3754 21.5869 16.3822 21.586C16.3431 21.5894 16.2887 21.6209 16.2504 21.6328C16.2054 21.6473 16.1603 21.66 16.1152 21.6711C16.0702 21.6821 16.0243 21.6915 15.9792 21.7C15.9622 21.7034 15.9452 21.7051 15.9282 21.7085C15.861 21.7204 16.02 21.7008 15.952 21.7051C15.8602 21.711 15.7692 21.7187 15.6766 21.7178C15.5958 21.717 15.515 21.7119 15.4351 21.7034C15.4173 21.7017 15.3416 21.694 15.4122 21.7008C15.4785 21.7076 15.4198 21.7008 15.4062 21.6991C15.3544 21.6898 15.3025 21.6804 15.2506 21.6694C15.0704 21.6303 14.8936 21.575 14.721 21.5095C14.7031 21.5027 14.585 21.4517 14.6428 21.4798C14.7006 21.5078 14.6428 21.4798 14.6326 21.4755C14.6105 21.4653 14.5875 21.456 14.5654 21.4458C14.4761 21.405 14.3877 21.3616 14.301 21.3165C13.9703 21.144 13.6566 20.9408 13.3548 20.7223C13.2834 20.6704 13.212 20.6186 13.1423 20.565C13.1278 20.554 13.1142 20.5438 13.0998 20.5327C13.0462 20.4927 13.1652 20.5846 13.1125 20.5429C13.0708 20.5098 13.0292 20.4774 12.9875 20.4434C12.8507 20.3321 12.7172 20.2164 12.5905 20.0932C12.4638 19.9699 12.3465 19.8424 12.2351 19.7072C12.1722 19.6315 12.247 19.72 12.2453 19.7217C12.2453 19.7217 12.2088 19.6724 12.2037 19.6655C12.1799 19.6324 12.1561 19.5992 12.134 19.5652C12.0821 19.4879 12.0328 19.408 11.9886 19.3263C11.9563 19.2668 11.9333 19.1903 11.8942 19.1359C11.8925 19.1334 11.9333 19.2345 11.9155 19.1869C11.9087 19.1691 11.9019 19.1521 11.8951 19.1351C11.8798 19.0951 11.8653 19.0551 11.8526 19.0143C11.8313 18.9497 11.8126 18.8851 11.7965 18.8188C11.7795 18.7482 11.7786 18.6539 11.7514 18.5876C11.7548 18.5952 11.765 18.7091 11.7574 18.6267C11.7557 18.6122 11.754 18.5978 11.7531 18.5825C11.7497 18.5433 11.7472 18.5042 11.7455 18.4651C11.7429 18.3929 11.7446 18.3198 11.7506 18.2475C11.7514 18.233 11.7582 18.2058 11.7565 18.1905C11.7574 18.199 11.7352 18.3113 11.7514 18.233C11.7582 18.2007 11.7633 18.1684 11.771 18.137C11.7786 18.1055 11.7871 18.0741 11.7973 18.0426C11.8033 18.0248 11.8101 18.0078 11.8152 17.9899C11.8407 17.9108 11.7761 18.0647 11.8041 18.0146C11.8203 17.9865 11.8322 17.9567 11.8483 17.9295C11.8611 17.9074 11.9044 17.8607 11.9087 17.8369C11.9087 17.8394 11.8432 17.9108 11.8772 17.8785C11.8908 17.8658 11.9019 17.8505 11.9146 17.8369C11.9478 17.8012 11.9835 17.768 12.0192 17.7349C12.0779 17.6804 12.1382 17.6277 12.2003 17.5776C12.2105 17.5691 12.2513 17.5427 12.2538 17.5351C12.2521 17.5419 12.1646 17.6022 12.2385 17.547C12.2751 17.5198 12.3117 17.4926 12.3482 17.4662C12.917 17.0615 13.5605 16.7818 14.1658 16.4401C14.4753 16.2658 14.7592 16.0626 15.0491 15.8577C15.3569 15.6401 15.674 15.4369 16.0013 15.249C16.3286 15.0611 16.661 14.8902 17.0036 14.7372C17.0428 14.7194 17.0827 14.7024 17.1218 14.6854C17.1439 14.676 17.1669 14.665 17.1898 14.6565C17.1754 14.6616 17.0963 14.6947 17.1779 14.6616C17.2595 14.6284 17.3497 14.5918 17.4355 14.5595C17.6149 14.4915 17.796 14.4278 17.9788 14.3699C18.1616 14.3121 18.3477 14.2577 18.5339 14.211C18.6317 14.1863 18.7312 14.1634 18.8298 14.1438C18.8757 14.1345 18.9224 14.126 18.9692 14.1175C18.9956 14.1132 19.0228 14.109 19.0491 14.1047C19.1426 14.0885 19.0024 14.1081 19.0619 14.103C19.2625 14.0834 19.4606 14.0698 19.6621 14.0817C19.6995 14.0843 19.7658 14.0783 19.8015 14.0936C19.7309 14.063 19.7581 14.0868 19.7939 14.0936C19.8177 14.0979 19.8415 14.1013 19.8653 14.1064C19.9605 14.1251 20.0548 14.1498 20.1475 14.1812C20.1705 14.1889 20.1934 14.1974 20.2164 14.2059C20.2317 14.211 20.2725 14.239 20.2274 14.2093C20.1747 14.1744 20.2376 14.2144 20.2546 14.222C20.2716 14.2297 20.2878 14.2373 20.3039 14.2458C20.3907 14.2892 20.474 14.3385 20.5539 14.3938C20.7605 14.5349 21.092 14.4397 21.2068 14.2229C21.3352 13.9806 21.2561 13.7204 21.0359 13.57C20.2342 13.0216 19.2234 13.0607 18.3188 13.2835C17.4933 13.4858 16.6916 13.8063 15.9393 14.1974C15.5779 14.3853 15.2277 14.5927 14.8885 14.8171C14.5493 15.0416 14.2534 15.2779 13.9184 15.4819C13.28 15.8705 12.5837 16.1578 11.9639 16.5778C11.6281 16.8056 11.2668 17.0675 11.0466 17.416C10.8477 17.7315 10.7754 18.1293 10.7924 18.4974C10.8307 19.2881 11.1929 19.9929 11.7208 20.5693C12.003 20.877 12.3287 21.1397 12.6611 21.3914C12.9799 21.632 13.3089 21.8589 13.6574 22.0545C14.4226 22.4838 15.2804 22.7695 16.1645 22.6351C16.383 22.602 16.5956 22.5374 16.7962 22.443C17.0445 22.3257 17.2136 22.1021 17.2851 21.8394C17.3862 21.4679 17.3641 21.0513 17.268 20.6806C17.0853 19.9767 16.582 19.3229 15.924 19.0024C15.7556 18.92 15.5796 18.852 15.3969 18.8103C15.1537 18.7559 14.8689 18.8843 14.8094 19.1436C14.7465 19.4216 14.8953 19.6281 15.1427 19.731C15.3212 19.8041 15.5125 19.85 15.6995 19.8942C15.9954 19.964 16.2946 20.0201 16.5947 20.0668C17.3055 20.1773 18.0357 20.2607 18.755 20.2071C19.3399 20.1637 20.1305 20.0354 20.4187 19.4403C20.6015 19.0628 20.553 18.6275 20.3388 18.2713C20.0744 17.8318 19.6196 17.5206 19.1715 17.2894C18.0774 16.724 16.8319 16.4987 15.6119 16.673C15.4538 16.696 15.2982 16.7266 15.1435 16.7648L15.3977 17.6855C15.4776 17.6651 15.5592 17.6515 15.6408 17.6388C15.6604 17.6362 15.6791 17.6328 15.6987 17.6303C15.7896 17.6167 15.5439 17.6498 15.657 17.6362C15.714 17.6294 15.7718 17.6226 15.8296 17.6158C16.0846 17.5886 16.3405 17.5674 16.5956 17.5461C17.2604 17.4909 17.9252 17.4322 18.5858 17.3412C19.2055 17.2562 19.833 17.1457 20.4204 16.9264C20.9467 16.73 21.5112 16.4409 21.7875 15.924C21.9592 15.6027 21.9915 15.2609 21.932 14.9055C21.8393 14.3538 21.4848 13.8879 21.0376 13.5691C20.8336 13.4237 20.4978 13.5266 20.3847 13.74C20.2546 13.9857 20.3379 14.2382 20.5556 14.3929L20.5539 14.3972Z" fill="#020202"/>
</svg>
