<svg width="17" height="15" viewBox="0 0 17 15" fill="none" xmlns="http://www.w3.org/2000/svg">
<path d="M5.28685 4.59082C5.34976 5.72662 4.9927 6.88113 4.29898 7.78229C3.66816 8.60269 2.84267 8.97506 1.94746 9.42224C1.48157 9.65433 1.02249 10.0309 0.958728 10.547C0.798899 11.835 2.92513 12.9929 3.92661 13.2751C6.61819 14.0343 9.49086 13.8422 12.2011 13.2573C13.3165 13.0167 16.6253 12.2235 15.2574 10.4654C14.7372 9.7963 14.1505 9.17824 13.6711 8.47942C13.1916 7.78059 12.8167 6.9789 12.7903 6.1313" fill="#3F8EF4"/>
<path d="M4.8402 4.59067C4.89121 5.85315 4.44488 7.15983 3.47571 8.00574C2.65956 8.71731 1.38943 8.91285 0.767122 9.83696C-0.41459 11.59 2.2906 13.1993 3.62704 13.649C6.13244 14.4941 8.99065 14.3156 11.5488 13.8429C12.3088 13.7026 13.0714 13.5394 13.8034 13.2869C14.4724 13.0556 15.2104 12.7521 15.672 12.1902C16.3105 11.4114 15.9474 10.6106 15.3872 9.91688C14.4809 8.79638 13.3188 7.66057 13.2372 6.13285C13.2066 5.56155 12.3139 5.55815 12.3445 6.13285C12.4057 7.28906 12.9456 8.28714 13.6401 9.18745C13.998 9.65248 14.3883 10.0903 14.7564 10.5477C14.9247 10.7568 15.1772 11.0306 15.1356 11.3273C15.0633 11.8374 14.3007 12.1417 13.8909 12.3067C13.3247 12.5336 12.7296 12.6867 12.1345 12.8167C9.69458 13.3506 7.11351 13.5606 4.65827 13.0012C3.80897 12.8074 3.02513 12.4911 2.3212 11.9691C1.7295 11.5296 0.965209 10.7186 1.7516 10.0699C2.17753 9.71879 2.75308 9.53771 3.22917 9.26141C3.75626 8.95536 4.2366 8.57874 4.61576 8.0984C5.39961 7.10798 5.78472 5.8489 5.73371 4.59152C5.71076 4.01937 4.8181 4.01597 4.84105 4.59152L4.8402 4.59067Z" fill="#020202"/>
<path d="M14.1602 1.92097C14.8318 3.10354 13.7751 5.10905 12.9283 5.89884C11.5825 7.15366 9.4325 7.29479 7.7645 6.5186C6.78683 6.06377 5.96048 5.33264 5.31011 4.47908C4.6861 3.65954 3.91246 2.6521 4.43531 1.59537C4.61894 1.22385 4.96835 0.9501 5.35602 0.801323C5.74369 0.652546 6.16707 0.61939 6.58109 0.642344C7.18215 0.6755 7.7764 0.824277 8.3222 1.07762C8.62911 1.22045 8.92241 1.39558 9.24292 1.50525C9.73346 1.67188 10.2784 1.67358 10.7698 1.5095C11.0724 1.40833 11.3521 1.24765 11.6548 1.14733C12.3145 0.928846 13.0712 1.02406 13.6569 1.39898C13.8814 1.54266 14.0454 1.72034 14.1602 1.92182V1.92097Z" fill="#3F8EF5"/>
<path d="M13.775 2.14542C14.0828 2.73458 13.8813 3.47676 13.6373 4.05317C13.3933 4.62957 13.0133 5.23913 12.5202 5.6659C11.3742 6.65718 9.66879 6.75325 8.28984 6.25421C7.52216 5.97621 6.83779 5.48057 6.26733 4.90332C5.71303 4.34222 5.10687 3.63064 4.82462 2.88421C4.48881 1.99665 5.01591 1.25446 5.92302 1.10909C6.83014 0.96371 7.7381 1.28847 8.55254 1.68804C9.41545 2.11142 10.2996 2.19813 11.1974 1.81726C11.642 1.62853 12.0501 1.44235 12.5466 1.48315C13.043 1.52396 13.5166 1.72885 13.7759 2.14542C14.0785 2.63256 14.8513 2.18453 14.547 1.69484C14.0088 0.830236 12.924 0.467221 11.943 0.621949C11.432 0.702713 11.0103 0.990065 10.5172 1.11844C9.9604 1.26381 9.44265 1.13459 8.93851 0.884646C7.93023 0.385607 6.82333 0.0378945 5.68583 0.247882C4.726 0.424714 3.93367 1.11589 3.8291 2.11737C3.72453 3.11885 4.4038 4.03276 4.99465 4.7928C5.61866 5.59619 6.3838 6.30097 7.28752 6.77705C8.93001 7.64251 11.0834 7.71902 12.6656 6.66738C14.0938 5.71861 15.4252 3.37559 14.5461 1.69399C14.28 1.18475 13.5089 1.63533 13.775 2.14457V2.14542Z" fill="#020202"/>
<path d="M11.2231 2.57693C11.2205 2.55482 11.2188 2.53272 11.2171 2.51061C11.2154 2.48341 11.2188 2.40774 11.263 2.4426C11.2749 2.45195 11.28 2.46641 11.2851 2.48086C11.348 2.66619 11.3532 2.86768 11.3659 3.06151C11.3659 3.06831 11.3659 3.07511 11.3634 3.08022C11.3565 3.09127 11.3396 3.09042 11.3302 3.08192C11.3208 3.07341 11.3174 3.05981 11.314 3.04791C11.2758 2.89318 11.2401 2.73675 11.2231 2.57778V2.57693Z" fill="#020202"/>
<path d="M11.4184 2.5772C11.4158 2.5551 11.4141 2.53299 11.4124 2.51089C11.4133 2.47943 11.409 2.48793 11.3997 2.53724L11.2832 2.62651L11.2959 2.62141L11.1463 2.60185C11.097 2.51684 11.0851 2.50749 11.1114 2.5755L11.1234 2.61886C11.1353 2.66817 11.1446 2.71748 11.1506 2.76763C11.1591 2.83905 11.1854 2.95977 11.1761 3.02863L11.2653 2.91216L11.25 2.92066L11.3997 2.90111L11.3818 2.89431L11.4983 2.98357C11.4447 2.86965 11.4328 2.70217 11.4184 2.5772C11.4064 2.47263 11.3376 2.38252 11.2237 2.38252C11.1276 2.38252 11.0171 2.47178 11.029 2.5772C11.0443 2.70557 11.0647 2.8331 11.0936 2.95977C11.1165 3.06264 11.1344 3.18931 11.2322 3.24967C11.3299 3.31003 11.4736 3.28113 11.5314 3.17826C11.5833 3.08644 11.5552 2.95807 11.5476 2.8586C11.534 2.68177 11.5297 2.37061 11.352 2.27115C11.2509 2.21419 11.1268 2.24309 11.0638 2.34171C11.0179 2.41312 11.0213 2.49729 11.029 2.57805C11.0392 2.68262 11.1114 2.77273 11.2237 2.77273C11.3214 2.77273 11.4277 2.68347 11.4184 2.57805V2.5772Z" fill="#020202"/>
<path d="M8.16246 2.74895C8.15905 2.72004 8.15651 2.69114 8.15481 2.66138C8.15226 2.62568 8.15735 2.52706 8.21516 2.57212C8.23047 2.58402 8.23812 2.60357 8.24407 2.62228C8.32654 2.86542 8.33334 3.12982 8.34949 3.38401C8.34949 3.39252 8.35034 3.40187 8.34609 3.40867C8.33759 3.42312 8.31463 3.42227 8.30188 3.41037C8.28913 3.39847 8.28488 3.38231 8.28063 3.36531C8.23047 3.16212 8.18286 2.95639 8.1616 2.7481L8.16246 2.74895Z" fill="#020202"/>
<path d="M8.41738 2.74868C8.41398 2.71978 8.41143 2.69087 8.40973 2.66112C8.41143 2.61946 8.40548 2.63136 8.39358 2.69512L8.2414 2.81244L8.2584 2.80564L8.06202 2.78014C7.99741 2.66792 7.9821 2.65687 8.01611 2.74528L8.03141 2.80224C8.04757 2.86685 8.05862 2.93147 8.06712 2.99778C8.07817 3.0913 8.11303 3.25027 8.10113 3.33954L8.21845 3.18736L8.19804 3.19841L8.39442 3.17291L8.37062 3.16441L8.5228 3.28173C8.45224 3.13295 8.43608 2.91191 8.41738 2.74868C8.40123 2.61181 8.31111 2.49364 8.16233 2.49364C8.03651 2.49364 7.89114 2.61096 7.90729 2.74868C7.92684 2.91786 7.95405 3.08449 7.99145 3.25027C8.02206 3.38545 8.04501 3.55123 8.17339 3.63114C8.30176 3.71106 8.48964 3.6728 8.56616 3.53762C8.63502 3.4169 8.59761 3.24942 8.58741 3.11765C8.56871 2.88471 8.5636 2.47748 8.33066 2.34656C8.19804 2.27175 8.03481 2.31 7.95235 2.43923C7.89199 2.53359 7.89624 2.64326 7.90644 2.74953C7.91919 2.88641 8.01441 3.00458 8.16148 3.00458C8.28901 3.00458 8.42928 2.88726 8.41653 2.74953L8.41738 2.74868Z" fill="#020202"/>
<path d="M8.6989 5.37852C9.02536 4.92114 9.40877 4.39574 10.0311 4.4017C10.6534 4.40765 11.1737 4.89308 11.5333 5.37767C11.7799 5.70923 12.3435 5.38617 12.0936 5.05036C11.592 4.37449 10.9229 3.76238 10.0302 3.75303C9.13758 3.74368 8.60453 4.39829 8.1378 5.05121C7.89466 5.39212 8.45745 5.71603 8.69805 5.37852H8.6989Z" fill="#020202"/>
</svg>
