<svg width="16" height="22" viewBox="0 0 16 22" fill="none" xmlns="http://www.w3.org/2000/svg">
<path d="M6.97318 13.7393C6.5532 15.6019 4.95406 16.9469 3.55641 18.0954C3.25461 18.3437 2.99021 18.6914 3.00552 19.0816C3.02337 19.5501 3.42804 19.9046 3.82251 20.1579C5.34173 21.133 7.18231 21.5122 8.98719 21.536C10.7921 21.5598 12.5833 21.2487 14.3619 20.9383C14.6798 20.8831 15.0199 20.8159 15.246 20.5864C15.6116 20.2149 15.513 19.5798 15.2333 19.1394C14.7359 18.3581 14.0167 17.8319 13.6418 16.9596C13.4819 16.589 13.3621 16.2013 13.2856 15.8051C13.2473 15.6087 13.2116 15.4056 13.2039 15.2058" fill="#F7EADD"/>
<path d="M6.54238 13.6197C6.13771 15.2962 4.80467 16.4813 3.52859 17.5406C2.89013 18.0702 2.25931 18.7912 2.71245 19.6634C3.09927 20.4082 4.02423 20.8358 4.75706 21.1512C6.54833 21.9206 8.53344 22.0762 10.4607 21.9325C11.5098 21.8543 12.553 21.6961 13.5901 21.521C14.3731 21.3884 15.4477 21.3646 15.8133 20.5161C16.2112 19.5937 15.537 18.7334 14.9691 18.0702C14.2414 17.2209 13.7321 16.3512 13.6497 15.2052C13.6088 14.6356 12.7153 14.6314 12.757 15.2052C12.8148 16.0103 13.0307 16.8571 13.4456 17.555C13.8384 18.2148 14.4548 18.7079 14.8467 19.3633C14.992 19.6056 15.1587 20.0222 14.9291 20.2687C14.6834 20.5331 14.0849 20.534 13.7568 20.5909C12.825 20.7516 11.8915 20.9055 10.9496 20.9973C9.21866 21.1665 7.45035 21.1333 5.7832 20.5901C5.07502 20.3589 4.20361 20.0264 3.67567 19.4772C3.0321 18.8073 4.13645 18.1986 4.59638 17.8033C5.8359 16.7389 7.00827 15.4892 7.40274 13.856C7.53706 13.2975 6.67671 13.0594 6.54238 13.6188V13.6197Z" fill="#020202"/>
<path d="M14.3361 12.8462C13.8711 13.9386 13.1714 14.9205 12.1954 15.3839C11.2985 15.8098 10.2095 15.7078 9.33295 15.2827C7.95996 14.6162 7.15826 13.2202 5.89919 12.3888C4.80249 11.6653 3.67944 11.0693 2.79443 10.0679C-1.99108 4.65323 6.72979 -0.592211 11.5655 1.9931C14.3548 3.48512 15.3529 7.15438 15.0392 10.1138C14.9516 10.9418 14.7255 11.9331 14.3361 12.847V12.8462Z" fill="#F7E8DD"/>
<path d="M13.9504 12.62C13.2864 14.1426 12.0826 15.5581 10.2454 15.1314C8.64036 14.7582 7.75535 13.2568 6.52943 12.297C5.21509 11.2683 3.67462 10.6298 2.68674 9.21771C2.07973 8.34971 1.70396 7.30147 1.90375 6.23538C2.29652 4.14825 4.36154 2.74465 6.25823 2.14359C8.47543 1.44137 11.0131 1.642 12.682 3.40777C14.9536 5.812 15.1194 9.80177 13.9062 12.7263C13.686 13.2559 14.5498 13.4872 14.7666 12.9635C16.0001 9.9922 15.8292 6.12231 13.8858 3.47153C12.1872 1.15401 9.37999 0.46454 6.66375 1.10556C4.36154 1.64795 1.92415 3.16888 1.16496 5.52635C0.790048 6.68936 0.961777 7.92803 1.51438 9.00432C2.34327 10.6188 3.82509 11.5862 5.30861 12.535C6.9511 13.5858 8.0138 15.525 10.0091 15.9917C11.0259 16.2298 12.1047 16.0708 12.954 15.4459C13.7676 14.8474 14.3228 13.9854 14.7215 13.0706C14.9493 12.5495 14.18 12.0946 13.9504 12.62Z" fill="#020202"/>
<path d="M11.604 8.86127C11.6006 8.83066 11.5981 8.80006 11.5955 8.76945C11.593 8.7312 11.5938 8.62833 11.6389 8.67679C11.6508 8.68954 11.6567 8.70994 11.6627 8.7295C11.7324 8.98624 11.7452 9.26424 11.7639 9.53204C11.7639 9.54139 11.7647 9.55074 11.7622 9.5584C11.7562 9.5737 11.7384 9.572 11.729 9.5601C11.7197 9.54819 11.7154 9.52949 11.712 9.51249C11.6678 9.29825 11.6261 9.08061 11.604 8.86127Z" fill="#020202"/>
<path d="M11.8323 8.86079C11.8289 8.83018 11.8264 8.79958 11.8238 8.76897C11.8264 8.70946 11.8111 8.72816 11.7779 8.82508L11.5008 8.86079C11.4404 8.76812 11.426 8.76387 11.4566 8.84974C11.4659 8.88969 11.4744 8.9305 11.4812 8.97131C11.4923 9.03337 11.4999 9.09543 11.5059 9.15834C11.5186 9.28842 11.5424 9.42869 11.5322 9.55876L11.6453 9.36153L11.63 9.37258H11.8604L11.8425 9.36323L11.9471 9.5001C11.8748 9.30372 11.8527 9.06993 11.8298 8.86249C11.7983 8.57344 11.3409 8.57004 11.3732 8.86249C11.392 9.03592 11.4183 9.2085 11.4506 9.38023C11.477 9.51966 11.488 9.69394 11.6291 9.76705C11.698 9.80276 11.7924 9.81466 11.8595 9.76705C12.0661 9.62167 11.9794 9.31392 11.9547 9.09628C11.9318 8.8948 11.9292 8.58109 11.7295 8.46717C11.641 8.41701 11.5254 8.43146 11.4523 8.50287C11.3528 8.60064 11.3596 8.73327 11.3724 8.86164C11.3996 9.15154 11.857 9.15494 11.8289 8.86164L11.8323 8.86079Z" fill="#020202"/>
<path d="M8.55898 9.24407C8.55558 9.21516 8.55303 9.18626 8.55133 9.1565C8.54878 9.12079 8.55303 9.02218 8.61169 9.06723C8.62699 9.07914 8.63464 9.09869 8.64059 9.11654C8.72476 9.35884 8.73241 9.62323 8.75026 9.87743C8.75026 9.88593 8.75111 9.89528 8.74686 9.90208C8.73836 9.91654 8.7154 9.91569 8.70265 9.90464C8.6899 9.89358 8.68565 9.87658 8.6814 9.86043C8.63039 9.65809 8.58193 9.45235 8.55898 9.24407Z" fill="#020202"/>
<path d="M8.81421 9.2438C8.81081 9.2149 8.80826 9.18599 8.80656 9.15623C8.80741 9.11458 8.8023 9.12563 8.78955 9.19024L8.63738 9.30756L8.65438 9.30076L8.458 9.27526C8.39338 9.16304 8.37893 9.15113 8.41294 9.2404C8.42399 9.27866 8.43334 9.31606 8.44184 9.35517C8.45374 9.41043 8.46224 9.46569 8.46904 9.5218C8.48265 9.64252 8.50815 9.7828 8.492 9.90182L8.61867 9.68163L8.59827 9.69268L8.79465 9.66718L8.77085 9.65867L8.92303 9.776C8.85161 9.62722 8.83376 9.40703 8.81421 9.2438C8.79806 9.10693 8.70879 8.98876 8.55916 8.98876C8.43419 8.98876 8.28712 9.10608 8.30412 9.2438C8.32452 9.41298 8.35257 9.57961 8.39083 9.74539C8.42229 9.88057 8.44524 10.0463 8.57447 10.1254C8.70369 10.2045 8.88902 10.1654 8.96724 10.0319C9.03695 9.91287 8.99784 9.74114 8.98679 9.61192C8.96723 9.37982 8.96043 8.9726 8.72749 8.84168C8.59487 8.76686 8.43164 8.80512 8.34917 8.93434C8.28881 9.02871 8.29392 9.13838 8.30412 9.24465C8.31772 9.38153 8.41124 9.4997 8.55916 9.4997C8.68669 9.4997 8.82781 9.38238 8.81421 9.24465V9.2438Z" fill="#020202"/>
<path d="M11.3268 11.5056C11.0803 11.7377 10.6951 11.8626 10.4044 11.6331C10.1136 11.4036 10.0601 10.9572 10.0167 10.6104C9.96486 10.2014 9.31534 10.1963 9.3672 10.6104C9.44542 11.231 9.57209 11.9315 10.1748 12.2605C10.7147 12.5555 11.3608 12.3659 11.7859 11.9647C12.0902 11.6773 11.6312 11.2191 11.3268 11.5056Z" fill="#020202"/>
<path d="M3.20381 8.42373C4.15428 8.29451 5.03674 7.71386 5.49157 6.8603C5.682 6.50409 5.80953 6.06116 5.60719 5.68114C5.40485 5.30112 4.97808 5.194 4.57851 5.1566C4.25205 5.12599 4.25375 5.63608 4.57851 5.66669C5.00868 5.7075 5.30284 5.91578 5.15066 6.38167C5.05629 6.66987 4.85821 6.93682 4.65077 7.15105C4.22314 7.59313 3.67394 7.84903 3.06864 7.93064C2.74473 7.97485 2.88245 8.46624 3.20466 8.42288L3.20381 8.42373Z" fill="#020202"/>
<path d="M4.46243 6.32776C4.01185 6.13392 3.70664 5.62468 3.95063 5.1486C4.18017 4.69972 4.93086 4.43107 5.20971 4.97942C5.35849 5.27187 5.79886 5.01427 5.65009 4.72182C5.24116 3.91758 4.13171 4.06465 3.63947 4.69887C3.09453 5.40109 3.40228 6.42383 4.20483 6.76814C4.50323 6.89651 4.76338 6.45698 4.46243 6.32776Z" fill="#020202"/>
<path d="M6.03747 5.46693C6.66658 5.74408 7.27019 5.63611 7.67571 5.05375C8.03278 4.54111 8.06083 3.88904 7.79558 3.3339C7.6536 3.03804 7.21408 3.29649 7.3552 3.59149C7.69101 4.29372 7.17752 5.41592 6.29506 5.02655C5.99751 4.89563 5.73736 5.33515 6.03747 5.46693Z" fill="#020202"/>
<path d="M6.78212 3.97844C6.3919 3.05517 8.21717 2.18292 8.58189 3.05092C8.70686 3.34933 9.2008 3.2184 9.07413 2.9149C8.40846 1.33276 5.66927 2.6437 6.34174 4.23603C6.46926 4.53699 6.90879 4.27769 6.78212 3.97844Z" fill="#020202"/>
<path d="M6.22327 6.26576C7.21795 6.93993 8.55949 6.39159 8.77373 5.20307C8.83154 4.88171 8.34015 4.74399 8.28149 5.06705C8.12422 5.94015 7.21965 6.32612 6.48002 5.82453C6.20797 5.64005 5.95207 6.08128 6.22242 6.26491L6.22327 6.26576Z" fill="#020202"/>
<path d="M8.60664 4.33263C8.97391 4.36664 9.24085 4.70415 9.18304 5.07056C9.13203 5.39192 9.62342 5.52965 9.67528 5.20659C9.78835 4.49501 9.32757 3.88885 8.60749 3.82254C8.28103 3.79279 8.28273 4.30288 8.60749 4.33263H8.60664Z" fill="#020202"/>
<path d="M10.1816 2.95575C10.8362 2.59699 11.5384 3.2023 11.3251 3.90282C11.229 4.21738 11.7212 4.35171 11.8173 4.03885C12.1659 2.89709 10.9595 1.94917 9.92485 2.51538C9.63665 2.67265 9.89425 3.11388 10.1824 2.95575H10.1816Z" fill="#020202"/>
<path d="M9.14062 3.88532C9.71617 4.19307 10.4371 4.0834 10.8741 3.59031C11.0909 3.34547 10.7313 2.98331 10.5136 3.22985C10.2297 3.54951 9.78163 3.64982 9.39821 3.44579C9.10916 3.29106 8.85071 3.73144 9.14062 3.88617V3.88532Z" fill="#020202"/>
<path d="M9.92613 5.64289C10.1735 6.11727 10.7499 6.22864 11.2413 6.15978C11.8568 6.07307 12.2045 5.60718 12.3236 5.02143C12.389 4.70092 11.8976 4.56405 11.8313 4.8854C11.7591 5.23907 11.6171 5.56723 11.2286 5.64884C10.9327 5.7109 10.5204 5.6803 10.3665 5.38529C10.2126 5.09029 9.77395 5.35214 9.92613 5.64289Z" fill="#020202"/>
<path d="M3.27026 6.33941C2.6386 6.2884 2.46432 7.03143 2.48387 7.51772C2.49662 7.84503 3.00671 7.84673 2.99396 7.51772C2.98631 7.32984 2.97781 6.82569 3.27026 6.8495C3.59757 6.87585 3.59587 6.36576 3.27026 6.33941Z" fill="#020202"/>
<path d="M5.95369 7.14536C6.40512 7.41146 6.92627 7.47947 7.43041 7.3392C7.74581 7.25163 7.61234 6.75854 7.29438 6.84696C6.91776 6.95153 6.5471 6.90307 6.21043 6.70498C5.92733 6.53835 5.66974 6.97873 5.95284 7.14536H5.95369Z" fill="#020202"/>
<path d="M8.87937 5.87653C8.79946 6.09417 8.61328 6.2608 8.39394 6.32796C8.08108 6.42402 8.21456 6.91626 8.52996 6.8202C8.93038 6.69777 9.22879 6.40277 9.37161 6.01255C9.41922 5.88333 9.3189 5.73285 9.19308 5.69884C9.0511 5.65974 8.92698 5.7473 8.87937 5.87738V5.87653Z" fill="#020202"/>
<path d="M4.44759 3.92514C4.8055 3.49581 5.3275 3.77296 5.56129 4.17508C5.72622 4.45818 6.16745 4.20229 6.00167 3.91748C5.6123 3.24926 4.65927 2.87775 4.08627 3.56467C3.87798 3.81547 4.23675 4.17763 4.44674 3.92514H4.44759Z" fill="#020202"/>
<path d="M2.80371 4.74565C2.52486 5.12992 2.50446 5.61366 2.69149 6.04043C2.82326 6.34054 3.26279 6.08124 3.13187 5.78284C3.0154 5.51759 3.07916 5.22939 3.24409 5.00325C3.43707 4.73715 2.995 4.4821 2.80371 4.74565Z" fill="#020202"/>
<path d="M12.2309 4.45126C12.6721 4.32033 12.9399 4.9435 12.8626 5.28781C12.7903 5.60747 13.2817 5.74434 13.3548 5.42383C13.5163 4.7097 12.9331 3.71078 12.0957 3.95987C11.782 4.05339 11.9155 4.54563 12.2317 4.45211L12.2309 4.45126Z" fill="#020202"/>
<path d="M10.3909 4.63913C10.5652 4.75985 10.6748 4.96049 10.6876 5.17132C10.7072 5.49778 11.2172 5.49948 11.1977 5.17132C11.173 4.7692 10.9784 4.42744 10.6485 4.1979C10.3781 4.01002 10.1231 4.4521 10.3909 4.63828V4.63913Z" fill="#020202"/>
</svg>
