<svg width="16" height="18" viewBox="0 0 16 18" fill="none" xmlns="http://www.w3.org/2000/svg">
<path d="M5.00853 6.99804L3.91013 7.03119C3.13054 7.055 2.31439 7.07115 1.61387 6.72854C1.35372 6.60187 1.09103 6.37828 1.10293 6.08922C1.11568 5.78997 1.41068 5.59018 1.68103 5.46096C2.47677 5.08179 3.35158 4.8701 4.23234 4.84375" fill="#E05326"/>
<path d="M5.00835 6.61676C4.00772 6.64652 2.66278 6.88881 1.75057 6.36937C1.47172 6.21039 1.43771 6.04291 1.72081 5.87118C1.9614 5.72495 2.23685 5.62719 2.50295 5.53792C3.06405 5.35004 3.6413 5.24972 4.23216 5.22506C4.721 5.20466 4.72355 4.44207 4.23216 4.46333C3.39986 4.49903 2.58711 4.66481 1.81773 4.98702C1.25577 5.22251 0.536548 5.63654 0.765239 6.36682C0.978627 7.04864 1.86533 7.28498 2.4851 7.37C3.31655 7.48392 4.1718 7.4057 5.0075 7.3802C5.49634 7.36575 5.49889 6.60316 5.0075 6.61846L5.00835 6.61676Z" fill="#020202"/>
<path d="M14.6103 13.369C13.5757 16.5673 9.32663 18.6714 6.67755 16.0444C6.29243 15.6627 5.90476 15.2776 5.59021 14.8347C4.03868 12.6472 3.96982 9.2313 5.33346 6.80157C5.52985 6.78371 5.72793 6.76076 5.93027 6.73951C6.49307 6.67999 7.05587 6.62133 7.61867 6.56437C8.74513 6.4513 9.87243 6.34504 11.0006 6.24557C11.622 6.19031 12.2427 6.1376 12.8641 6.08744C13.3011 6.05173 13.7398 6.03303 14.1767 5.99902C15.2964 8.21537 15.2454 11.4102 14.6103 13.369Z" fill="#F7EADD"/>
<path d="M14.1947 13.2542C13.5155 15.2793 11.4318 16.9371 9.24261 16.7917C7.97928 16.7084 7.06282 15.905 6.26368 14.9919C5.38887 13.9922 4.93319 12.6668 4.82437 11.3558C4.70025 9.86126 4.98165 8.33693 5.70598 7.01835L5.33361 7.23174C8.28109 6.94779 11.2235 6.64683 14.1769 6.42919L13.8045 6.2158C14.8383 8.31228 14.8927 11.0438 14.1947 13.2534C14.0273 13.7839 14.8596 14.0109 15.0262 13.4829C15.7956 11.0472 15.6834 8.08274 14.5493 5.78053C14.4872 5.6547 14.3172 5.55694 14.1769 5.56714C11.5933 5.75757 9.01392 5.98456 6.43711 6.25406C6.1183 6.28722 5.80034 6.32122 5.48153 6.35523C5.25794 6.37903 5.10747 6.39009 4.96124 6.58307C4.65519 6.98774 4.47325 7.5956 4.32363 8.07339C4.03202 9.0043 3.90535 9.99728 3.94021 10.9716C3.97591 11.9713 4.1791 12.9643 4.57442 13.8842C5.0012 14.878 5.67197 15.6959 6.45836 16.4304C7.70979 17.5993 9.45005 17.9377 11.0704 17.4115C12.9136 16.8121 14.4115 15.3167 15.0262 13.4829C15.203 12.9558 14.3707 12.7297 14.1947 13.2534V13.2542Z" fill="#020202"/>
<path d="M10.9265 11.8161C10.6077 12.5396 10.2548 13.3889 9.54922 13.8174C9.06803 14.1099 8.68971 14.0121 8.37006 13.5726C8.09716 13.1976 7.95688 12.7607 7.89567 12.3058C7.82171 11.7583 6.99026 11.9913 7.06422 12.5354C7.21555 13.6525 8.03424 15.1283 9.36643 14.8223C10.5805 14.5443 11.2155 13.2878 11.672 12.2514C11.8931 11.7481 11.1509 11.3086 10.9273 11.8161H10.9265Z" fill="#020202"/>
<path d="M7.68944 8.24583C7.69284 8.19653 7.69624 8.14722 7.69794 8.09791C7.70049 8.0367 7.68774 7.87007 7.59167 7.94998C7.56617 7.97123 7.55427 8.00439 7.54492 8.03585C7.41569 8.44987 7.41569 8.89705 7.40039 9.32808C7.40039 9.34253 7.40039 9.35783 7.40719 9.36974C7.42249 9.39354 7.46075 9.39099 7.48116 9.37144C7.50156 9.35188 7.50921 9.32298 7.51516 9.29492C7.59168 8.94976 7.66139 8.5995 7.68944 8.24668V8.24583Z" fill="#020202"/>
<path d="M8.12075 8.24575C8.1335 8.06636 8.13775 7.88018 8.03573 7.72205C7.89886 7.51036 7.63871 7.4449 7.41682 7.55712C7.0011 7.76626 7.0079 8.48039 6.98749 8.87656C6.97559 9.09845 6.92033 9.3841 7.03595 9.58729C7.15837 9.80152 7.43467 9.86444 7.64891 9.76497C7.91161 9.6434 7.94732 9.35264 7.99832 9.09675C8.05443 8.81535 8.09609 8.5314 8.1216 8.24575C8.17091 7.69315 7.30885 7.69655 7.25954 8.24575C7.23489 8.52119 7.22299 8.89781 7.11077 9.15286L7.36836 8.95477L7.32926 8.97007L7.66167 9.01343L7.62681 8.99643L7.82489 9.25403C7.79769 9.0908 7.84955 8.8417 7.864 8.67507C7.8725 8.57985 7.88355 8.48634 7.90226 8.39197C7.91161 8.34266 7.92266 8.2942 7.93541 8.24575C7.99067 8.09442 7.96262 8.11312 7.85295 8.301L7.52054 8.34436L7.5503 8.35456L7.2927 8.15648C7.27315 8.04681 7.26549 8.02726 7.2689 8.09782C7.26719 8.14713 7.26379 8.19644 7.26039 8.24575C7.22214 8.79919 8.08504 8.79749 8.12245 8.24575H8.12075Z" fill="#020202"/>
<path d="M11.6348 7.58763C11.6382 7.53832 11.6416 7.48901 11.6433 7.4397C11.6458 7.37849 11.6331 7.21186 11.537 7.29178C11.5115 7.31303 11.4996 7.34619 11.4902 7.37764C11.361 7.79167 11.361 8.23885 11.3457 8.66987C11.3457 8.68433 11.3457 8.69963 11.3525 8.71153C11.3678 8.73534 11.4061 8.73279 11.4265 8.71323C11.4469 8.69368 11.4545 8.66477 11.4605 8.63672C11.537 8.29156 11.6067 7.94129 11.6348 7.58848V7.58763Z" fill="#020202"/>
<path d="M12.0661 7.58754C12.0788 7.40816 12.0831 7.22198 11.981 7.06385C11.8442 6.85216 11.584 6.7867 11.3621 6.89892C10.9464 7.10806 10.9532 7.82218 10.9328 8.21836C10.9209 8.44025 10.8656 8.7259 10.9813 8.92908C11.1037 9.14332 11.38 9.20623 11.5942 9.10676C11.8569 8.98519 11.8926 8.69444 11.9436 8.43854C11.9997 8.15714 12.0414 7.87319 12.0669 7.58754C12.1162 7.03494 11.2542 7.03834 11.2049 7.58754C11.1802 7.86299 11.1683 8.23961 11.0561 8.49465L11.3137 8.29657L11.2746 8.31187L11.607 8.35523L11.5721 8.33823L11.7702 8.59582C11.743 8.43259 11.7949 8.1835 11.8093 8.01687C11.8178 7.92165 11.8289 7.82814 11.8476 7.73377C11.8569 7.68446 11.868 7.636 11.8807 7.58754C11.936 7.43621 11.9079 7.45492 11.7983 7.6428L11.4658 7.68616L11.4956 7.69636L11.238 7.49828C11.2185 7.38861 11.2108 7.36905 11.2142 7.43962C11.2125 7.48892 11.2091 7.53823 11.2057 7.58754C11.1674 8.14099 12.0304 8.13929 12.0678 7.58754H12.0661Z" fill="#020202"/>
<path d="M14.6524 5.8953C14.6039 5.94206 14.5189 5.97096 14.3778 5.98287C14.3106 5.98882 14.2443 5.99477 14.1771 5.99987C13.7402 6.03388 13.3015 6.05258 12.8645 6.08828C12.243 6.13844 11.6224 6.19115 11.001 6.24641C9.87283 6.34588 8.74552 6.45215 7.61907 6.56522C7.05627 6.62218 6.49347 6.68084 5.93067 6.74035C5.72833 6.76161 5.53025 6.78456 5.33386 6.80241C5.0023 6.83387 4.67329 6.85342 4.32813 6.83727C4.30858 6.83642 4.28817 6.83472 4.27032 6.82707C4.1802 6.78626 4.27797 6.49126 4.28647 6.42239C4.30603 6.25916 4.32728 6.09679 4.35364 5.93441C4.40465 5.61135 4.47011 5.28999 4.56107 4.97288C4.74301 4.34207 5.03291 3.72656 5.50559 3.19692C6.07774 2.55675 6.89474 2.06706 7.79505 1.7253C8.61545 1.41415 9.52341 1.21946 10.4433 1.24667C11.2093 1.26877 12.3306 1.4235 12.9461 1.93019C13.5166 2.39947 13.9782 3.15441 14.2469 3.83453C14.4356 4.31232 14.5572 4.81391 14.6405 5.31975C14.6881 5.60795 14.757 5.79328 14.6524 5.8953Z" fill="#E05326"/>
<path d="M14.4605 5.56692C14.2148 5.73015 13.6444 5.65448 13.357 5.67319C12.9336 5.70039 12.5111 5.7361 12.0886 5.7718C11.2155 5.84492 10.3432 5.92313 9.47096 6.00475C8.59871 6.08636 7.72985 6.17223 6.86014 6.26234C6.42572 6.3074 5.99129 6.35501 5.55686 6.40007C5.36473 6.41962 5.17259 6.43832 4.97961 6.45023C4.88439 6.45618 4.78917 6.45958 4.69311 6.46128C4.62339 6.46213 4.42616 6.41197 4.50947 6.51909L4.62084 6.78859C4.59789 6.56415 4.68716 6.25214 4.72116 6.0362C4.77982 5.66639 4.85633 5.29742 4.9694 4.93951C5.16579 4.31719 5.4863 3.73909 5.95388 3.27916C6.8627 2.38565 8.18553 1.86705 9.43101 1.68597C10.4656 1.53549 11.9407 1.5627 12.7764 2.28618C13.2346 2.6832 13.5704 3.23665 13.8152 3.785C13.9632 4.11571 14.0694 4.46597 14.1528 4.81793C14.1885 4.96756 14.2182 5.11889 14.2471 5.27022C14.2582 5.32888 14.3568 5.65448 14.3236 5.70379C14.0507 6.11272 14.7105 6.49444 14.9817 6.08806C15.1823 5.78711 15.042 5.39349 14.9817 5.06703C14.883 4.53653 14.7402 4.01794 14.5268 3.52145C14.1859 2.73251 13.6631 1.89596 12.9098 1.44198C12.217 1.02455 11.3447 0.902981 10.5498 0.868975C9.53048 0.825617 8.50349 1.0322 7.55897 1.40967C6.71732 1.74633 5.89947 2.20712 5.27971 2.87959C4.60469 3.61157 4.22977 4.54248 4.04189 5.50996C3.96878 5.88913 3.8489 6.33036 3.8506 6.71888C3.8523 7.18136 4.25018 7.22557 4.61914 7.22302C5.67078 7.21706 6.73347 7.03343 7.77831 6.92886C9.00678 6.80644 10.2353 6.69167 11.4654 6.5854C12.0945 6.53099 12.7245 6.47403 13.3553 6.43322C13.7965 6.40517 14.4588 6.47913 14.8431 6.22324C15.2495 5.95289 14.8686 5.29232 14.4588 5.56522L14.4605 5.56692Z" fill="#020202"/>
<path d="M6.96497 9.40771C6.58155 9.27594 6.13437 9.69166 6.17773 10.0785C6.20068 10.2834 6.35371 10.4645 6.5688 10.473C6.78389 10.4815 6.96242 10.3165 7.05764 10.1337C7.16731 9.92376 7.20641 9.65001 7.02278 9.46723C6.92331 9.36861 6.76944 9.52248 6.8689 9.6211C6.90971 9.66191 6.93182 9.71887 6.93437 9.77328C6.93777 9.84384 6.91991 9.9144 6.89101 9.97902C6.8366 10.1023 6.74648 10.2358 6.60536 10.2553C6.5552 10.2621 6.50419 10.246 6.47188 10.2162C6.42768 10.1763 6.40812 10.1337 6.39452 10.0734C6.39452 10.0717 6.39197 10.0521 6.39282 10.0666C6.39197 10.0589 6.39197 10.0504 6.39112 10.0428C6.39112 10.0249 6.39112 10.0062 6.39367 9.98922C6.39622 9.96882 6.40812 9.92631 6.41832 9.90165C6.44298 9.84129 6.48463 9.78348 6.53139 9.73672C6.5807 9.68656 6.64616 9.64236 6.70823 9.6211C6.78134 9.59645 6.8349 9.5939 6.90546 9.61855C6.96072 9.63811 7.02448 9.59645 7.03893 9.54289C7.05509 9.48338 7.01853 9.42812 6.96327 9.40941L6.96497 9.40771Z" fill="#020202"/>
<path d="M11.5666 8.9956C11.445 9.17244 11.4893 9.41048 11.6185 9.56946C11.7477 9.72844 11.9832 9.7786 12.1762 9.69868C12.3564 9.62387 12.5247 9.44618 12.5035 9.2379C12.4848 9.04831 12.3352 8.91739 12.166 8.85193C12.0801 8.81877 11.9832 8.80347 11.8914 8.81367C11.7588 8.82812 11.6457 8.88849 11.5658 8.9973C11.5318 9.04321 11.5564 9.12058 11.6049 9.14608C11.6618 9.17584 11.7179 9.15628 11.7537 9.10697C11.7392 9.12653 11.7579 9.10272 11.7605 9.10017C11.7673 9.09337 11.7741 9.08657 11.7809 9.07977C11.8013 9.05936 11.7647 9.08742 11.7902 9.07297C11.7987 9.06787 11.8072 9.06192 11.8166 9.05682C11.8166 9.05682 11.848 9.04236 11.8293 9.05001C11.8387 9.04661 11.848 9.04321 11.8574 9.04066C11.8676 9.03811 11.8982 9.02536 11.9084 9.02961L11.8948 9.03131C11.8999 9.03131 11.905 9.03046 11.9101 9.02961C11.9177 9.02961 11.9254 9.02876 11.933 9.02876C11.9483 9.02876 11.9636 9.02876 11.9798 9.02961C11.9874 9.02961 11.9951 9.03131 12.0027 9.03216C11.9721 9.02876 11.9993 9.03216 12.0053 9.03301C12.0232 9.03641 12.0419 9.04066 12.0597 9.04576C12.075 9.05001 12.0895 9.05597 12.1048 9.06107C12.1303 9.06957 12.0835 9.05086 12.1082 9.06192C12.115 9.06532 12.1226 9.06872 12.1294 9.07212C12.143 9.07892 12.1566 9.08657 12.1702 9.09507C12.177 9.09932 12.183 9.10357 12.1898 9.10782C12.194 9.11037 12.1983 9.11377 12.2025 9.11718C12.1906 9.10782 12.1889 9.10697 12.1983 9.11463C12.2187 9.13248 12.2382 9.15118 12.2552 9.17244C12.2348 9.14863 12.262 9.18434 12.2663 9.19199C12.2697 9.19794 12.2731 9.20474 12.2765 9.21069C12.2858 9.22685 12.2688 9.18774 12.279 9.21749C12.2816 9.2243 12.2841 9.25405 12.2892 9.2583C12.2816 9.25235 12.2875 9.2345 12.2884 9.2583C12.2884 9.2651 12.2884 9.27275 12.2884 9.27955V9.28721C12.2867 9.29911 12.2875 9.29741 12.2892 9.2804C12.2909 9.28381 12.2858 9.29911 12.285 9.30336C12.2833 9.31101 12.2807 9.31866 12.2782 9.32631C12.2765 9.33141 12.2748 9.33651 12.2722 9.34162C12.2782 9.32886 12.2782 9.32801 12.2722 9.33907C12.2637 9.35522 12.2552 9.37137 12.245 9.38582C12.2433 9.38922 12.2246 9.41218 12.2399 9.39347C12.234 9.40028 12.228 9.40708 12.2221 9.41388C12.2093 9.42748 12.1957 9.43938 12.1813 9.45214C12.2 9.43598 12.1762 9.45554 12.1736 9.45724C12.1634 9.46404 12.1532 9.47084 12.1422 9.47764C12.1337 9.48274 12.126 9.48699 12.1175 9.49124C12.115 9.49294 12.0861 9.50484 12.109 9.49549C12.092 9.50229 12.0742 9.50825 12.0555 9.51335C12.0461 9.5159 12.0376 9.5176 12.0283 9.52015C12.024 9.521 11.9934 9.5244 12.0206 9.52185C12.0019 9.52355 11.984 9.5244 11.9653 9.5244C11.956 9.5244 11.9466 9.52355 11.9381 9.5227C11.9645 9.5244 11.9356 9.5227 11.9305 9.521C11.9126 9.5176 11.8948 9.51165 11.8778 9.5057C11.9016 9.5142 11.8735 9.50315 11.8701 9.50144C11.8625 9.49719 11.8548 9.49294 11.8472 9.48869C11.8395 9.48444 11.8327 9.47934 11.8251 9.47424C11.8472 9.48869 11.8174 9.46744 11.8132 9.46404C11.7979 9.45044 11.7843 9.43513 11.7715 9.41898C11.7877 9.43938 11.7698 9.41558 11.7673 9.41218C11.7605 9.40198 11.7545 9.39262 11.7485 9.38157C11.7443 9.37392 11.7409 9.36542 11.7366 9.35777C11.7315 9.34672 11.7315 9.34672 11.7366 9.35947C11.7341 9.35437 11.7324 9.34842 11.7307 9.34332C11.7239 9.32376 11.7179 9.30421 11.7145 9.28381C11.7137 9.2787 11.7111 9.25065 11.7128 9.27785C11.7128 9.26595 11.7111 9.2549 11.7111 9.243C11.7111 9.2345 11.7111 9.22599 11.7111 9.21664C11.7111 9.21069 11.712 9.20474 11.7128 9.19964C11.7111 9.21409 11.7111 9.21494 11.7128 9.20304C11.7179 9.18349 11.7222 9.16393 11.7298 9.14438C11.7196 9.16904 11.7315 9.14268 11.7341 9.13843C11.74 9.12823 11.746 9.11803 11.7528 9.10782C11.7851 9.06107 11.763 8.9854 11.7137 8.95905C11.6584 8.93014 11.5989 8.948 11.5649 8.99815L11.5666 8.9956Z" fill="#020202"/>
<path d="M7.47243 5.27773C7.70028 4.63756 7.98168 3.9889 8.36424 3.42354C8.40845 3.35808 8.60654 3.02397 8.74086 3.12854C8.78762 3.1651 8.73916 3.48816 8.73746 3.53661C8.72216 3.92343 8.6822 4.3077 8.62184 4.69112C8.56148 5.07454 9.05627 5.20887 9.19569 4.84925C9.41163 4.29325 9.45754 3.56042 9.89282 3.11154C10.2592 2.73492 10.3451 3.26372 10.3664 3.56127C10.397 3.98465 10.4038 4.40887 10.3953 4.8331C10.3876 5.21652 10.9827 5.21652 10.9904 4.8331C11.004 4.16063 11.2012 2.12366 9.96678 2.38891C9.02991 2.59039 8.89559 3.9855 8.62184 4.69112L9.19569 4.84925C9.27476 4.35276 9.73469 2.18912 8.60909 2.46712C8.16701 2.57594 7.88731 3.04523 7.67817 3.40824C7.36361 3.95319 7.10942 4.52874 6.89943 5.1213C6.77106 5.48261 7.34576 5.63819 7.47328 5.27943L7.47243 5.27773Z" fill="#FCD14A"/>
</svg>
