<svg width="22" height="22" viewBox="0 0 22 22" fill="none" xmlns="http://www.w3.org/2000/svg">
<path d="M14.8943 7.23311C15.0915 7.06253 15.3035 6.89899 15.5273 6.74953C16.4757 6.11415 17.6346 5.72681 18.7496 6.09537C19.3717 6.30195 19.8701 6.69554 20.2606 7.20729C21.5071 8.83878 21.6534 11.6628 21.1957 13.3538C20.5188 15.853 17.3294 17.6316 15.1932 15.7098C15.1079 15.6332 15.0226 15.5565 14.9381 15.4782C14.924 14.0455 14.5789 12.4742 13.7659 11.4108C13.6329 11.2379 13.4881 11.0775 13.3301 10.9343" fill="#E8B62A"/>
<path d="M15.1835 7.5236C16.2946 6.5807 17.8932 5.89602 19.2384 6.7904C20.2892 7.48839 20.7337 8.84601 20.9223 10.0315C21.0976 11.134 21.0897 12.3649 20.7407 13.4353C20.4043 14.4659 19.5936 15.3329 18.6202 15.7937C18.0928 16.0434 17.4856 16.1678 16.9034 16.0895C16.2305 15.9988 15.714 15.6357 15.2265 15.1873L15.347 15.4776C15.3189 13.764 14.912 11.8625 13.6185 10.6434C13.2343 10.2811 12.6521 10.8609 13.0379 11.224C13.7922 11.9353 14.1725 12.9189 14.3713 13.9189C14.4745 14.4377 14.4464 14.962 14.5254 15.4776C14.5857 15.8681 15.0888 16.1834 15.4065 16.3884C16.7759 17.2734 18.5286 16.9831 19.7869 16.0434C21.1375 15.0347 21.729 13.5535 21.8261 11.9087C21.9262 10.2115 21.621 8.28574 20.5482 6.91639C19.8659 6.04547 18.8346 5.49616 17.7125 5.5439C16.5372 5.59397 15.4793 6.19728 14.6013 6.94221C14.1975 7.28494 14.7813 7.8632 15.1819 7.52282L15.1835 7.5236Z" fill="#020202"/>
<path d="M13.2246 10.8428C13.2606 10.8725 13.2958 10.903 13.3302 10.9351L13.2246 10.8428Z" fill="white"/>
<path d="M12.9343 11.1329C12.9703 11.1626 13.0055 11.1931 13.0399 11.2252C13.1189 11.2987 13.2207 11.3457 13.3302 11.3457C13.3865 11.348 13.4398 11.3363 13.4883 11.3105C13.5391 11.294 13.583 11.2659 13.6205 11.2252C13.6925 11.1469 13.7457 11.0444 13.741 10.9349L13.7261 10.8253C13.7066 10.7557 13.6714 10.6954 13.6205 10.6438C13.5861 10.6117 13.5509 10.5812 13.5149 10.5515C13.4773 10.5116 13.4335 10.4834 13.3826 10.4662C13.3333 10.4403 13.2809 10.4286 13.2246 10.431C13.1682 10.4286 13.115 10.4403 13.0665 10.4662C13.0156 10.4826 12.9718 10.5108 12.9343 10.5515C12.8623 10.6297 12.8091 10.7322 12.8138 10.8418L12.8286 10.9513C12.8482 11.021 12.8834 11.0812 12.9343 11.1329Z" fill="#020202"/>
<path d="M15.5273 6.74996C15.3035 6.89942 15.0915 7.06296 14.8943 7.23354C13.8841 8.10837 13.3308 9.45347 13.2244 10.8424C12.9419 10.6061 12.6196 10.4206 12.2549 10.3001C11.2596 9.9707 10.2291 10.2438 9.34484 10.7587C9.32762 10.7438 9.31119 10.7289 9.29476 10.7141C9.25015 10.6742 9.20555 10.6343 9.16173 10.5943C9.08192 9.3001 8.72902 7.95344 8.00678 7.00819C7.80255 6.74136 7.57015 6.50661 7.30566 6.3149C7.31349 4.76478 7.87141 3.20997 8.99506 2.23655C10.028 1.34295 11.4724 0.643402 12.8504 1.09959C13.4725 1.30539 13.9709 1.69977 14.3622 2.21073C15.2652 3.39308 15.5907 5.20063 15.5273 6.74996Z" fill="#E8B62A"/>
<path d="M15.3192 6.39482C13.7839 7.44492 12.9717 9.0013 12.8129 10.8417L13.514 10.5514C12.1884 9.48644 10.5648 9.59521 9.13671 10.4035L9.63437 10.4677C9.57334 10.4129 9.5123 10.3581 9.45127 10.3034L9.57177 10.5937C9.45362 8.8714 8.94656 7.04428 7.51226 5.95975L7.71571 6.31422C7.73292 5.15457 8.04279 3.9597 8.78302 3.04341C9.50839 2.14511 10.7283 1.38296 11.9059 1.36731C14.5476 1.33132 15.1854 4.7242 15.1165 6.74929C15.0985 7.27825 15.9201 7.27747 15.9381 6.74929C16.0258 4.18428 14.9451 0.251477 11.6555 0.558996C10.2236 0.692802 8.83232 1.58641 7.99114 2.7351C7.57407 3.30476 7.2822 3.97222 7.10693 4.65456C7.02007 4.99338 6.96373 5.33924 6.92852 5.68666C6.89331 6.03409 6.81271 6.40968 7.09832 6.66869C7.7517 7.26025 8.16955 7.93163 8.42934 8.77829C8.55141 9.17579 8.63904 9.58582 8.6946 9.99819C8.72277 10.2102 8.71495 10.4387 8.75877 10.6477C8.79789 10.8355 8.91918 10.927 9.05455 11.0475C9.18992 11.168 9.38711 11.2056 9.55221 11.1117C10.6258 10.5037 11.9099 10.3081 12.9341 11.1312C13.219 11.3605 13.6032 11.2118 13.6353 10.8409C13.7675 9.30882 14.4569 7.97701 15.7347 7.10297C16.1682 6.80641 15.7582 6.09356 15.32 6.39325L15.3192 6.39482Z" fill="#020202"/>
<path d="M12.3018 6.71158C12.0921 7.25776 11.8487 7.91114 11.3206 8.22805C10.65 8.63025 10.2697 7.67639 10.1695 7.1529C10.0694 6.62942 9.27904 6.85399 9.37763 7.37122C9.54743 8.26248 10.2611 9.40961 11.3206 9.1193C12.3088 8.84856 12.7611 7.79768 13.0937 6.92989C13.283 6.43614 12.4888 6.22174 12.3018 6.71158Z" fill="#020202"/>
<path d="M12.1675 4.22689H13.5979C14.1269 4.22689 14.1277 3.40527 13.5979 3.40527H12.1675C11.6386 3.40527 11.6378 4.22689 12.1675 4.22689Z" fill="#020202"/>
<path d="M9.38334 4.3763H10.6252C11.1541 4.3763 11.1549 3.55469 10.6252 3.55469H9.38334C8.85438 3.55469 8.8536 4.3763 9.38334 4.3763Z" fill="#020202"/>
<path d="M9.17276 10.859C8.89655 11.0327 8.63598 11.2291 8.3981 11.4349C7.18602 12.4835 6.6328 14.2089 6.71731 15.8756C5.51853 16.5063 4.07796 16.5344 2.93787 15.5086C2.62644 15.2292 2.31423 14.9475 2.05601 14.6189C0.4206 12.5367 0.583358 8.81124 2.63896 7.03185C3.67107 6.13825 5.11633 5.4387 6.49352 5.89411C6.79164 5.9927 7.0616 6.13434 7.30418 6.31274C7.56866 6.50445 7.80106 6.7392 8.00529 7.00603C8.72753 7.95128 9.08043 9.29795 9.16024 10.5922C9.16572 10.6814 9.17042 10.7706 9.17276 10.859Z" fill="#E8B62A"/>
<path d="M8.96593 10.5053C8.06215 11.089 7.32113 11.841 6.87433 12.8293C6.44239 13.7855 6.2632 14.8301 6.30702 15.8763L6.51047 15.5218C5.88057 15.8419 5.15833 16.0062 4.45643 15.8528C3.67081 15.6814 3.04951 15.1259 2.52602 14.5414C1.70363 13.6235 1.35698 12.3379 1.36011 11.1266C1.36324 9.92857 1.70989 8.66093 2.50881 7.74307C3.43763 6.67575 5.09103 5.77041 6.51047 6.33537C8.21474 7.013 8.69988 9.23058 8.76248 10.8589C8.78283 11.3863 9.60444 11.3887 9.5841 10.8589C9.51602 9.09208 9.02853 7.04822 7.51206 5.95821C5.88056 4.78525 3.85078 5.48558 2.44386 6.66088C0.169944 8.56077 -0.081236 12.4677 1.67233 14.7886C2.27798 15.5907 3.13402 16.3567 4.12465 16.6181C5.11529 16.8794 6.05976 16.6713 6.92519 16.2315C7.04804 16.1689 7.13412 16.0132 7.12864 15.8771C7.05039 13.9842 7.76324 12.2596 9.38065 11.215C9.82354 10.9294 9.41195 10.2173 8.96593 10.5053Z" fill="#020202"/>
<path d="M13.2246 10.8428C13.2606 10.8725 13.2958 10.903 13.3302 10.9351L13.2246 10.8428Z" fill="white"/>
<path d="M12.9343 11.1329C12.9703 11.1626 13.0055 11.1931 13.0399 11.2252C13.1189 11.2987 13.2207 11.3457 13.3302 11.3457C13.3865 11.348 13.4398 11.3363 13.4883 11.3105C13.5391 11.294 13.583 11.2659 13.6205 11.2252C13.6925 11.1469 13.7457 11.0444 13.741 10.9349L13.7261 10.8253C13.7066 10.7557 13.6714 10.6954 13.6205 10.6438C13.5861 10.6117 13.5509 10.5812 13.5149 10.5515C13.4773 10.5116 13.4335 10.4834 13.3826 10.4662C13.3333 10.4403 13.2809 10.4286 13.2246 10.431C13.1682 10.4286 13.115 10.4403 13.0665 10.4662C13.0156 10.4826 12.9718 10.5108 12.9343 10.5515C12.8623 10.6297 12.8091 10.7322 12.8138 10.8418L12.8286 10.9513C12.8482 11.021 12.8834 11.0812 12.9343 11.1329Z" fill="#020202"/>
<path d="M13.225 10.8411C12.9425 10.6048 12.6201 10.4193 12.2555 10.2988C11.2601 9.96939 10.2296 10.2425 9.34537 10.7574C9.28747 10.7902 9.23113 10.8247 9.17479 10.8599C8.89857 11.0336 8.638 11.23 8.40012 11.4358C7.18804 12.4843 6.63482 14.2097 6.71933 15.8764C6.77802 17.0369 7.14657 18.1691 7.81795 19.0236C8.07617 19.3522 8.38838 19.6339 8.69982 19.9133C10.836 21.8343 14.0255 20.0557 14.7015 17.5572C14.8612 16.968 14.9472 16.2426 14.9386 15.4773C14.9245 14.0446 14.5795 12.4734 13.7664 11.41C13.6334 11.237 13.4887 11.0766 13.3306 10.9334L13.225 10.8411Z" fill="#E8B62A"/>
<path d="M13.5141 10.5511C12.5986 9.81476 11.4671 9.57376 10.3294 9.88988C9.26755 10.1849 8.22997 10.8758 7.54529 11.7381C6.18845 13.4471 5.94588 15.9784 6.75654 17.9785C7.50538 19.8252 9.30981 21.416 11.3975 21.0787C13.1362 20.7978 14.637 19.3463 15.0963 17.6671C15.45 16.3736 15.4218 14.9432 15.1511 13.6372C14.9117 12.4823 14.4163 11.3398 13.5141 10.5511C13.1174 10.2044 12.5345 10.7835 12.9335 11.1317C14.36 12.379 14.6542 14.5809 14.493 16.3705C14.3506 17.9542 13.5407 19.3823 12.0399 20.038C11.4131 20.3119 10.7019 20.4019 10.0399 20.2117C9.21512 19.9746 8.45767 19.2571 7.9874 18.5622C6.9412 17.0184 6.83713 14.811 7.63527 13.1364C8.4921 11.3375 11.0986 9.65592 12.9343 11.1317C13.3428 11.4596 13.9273 10.8821 13.5149 10.5511H13.5141Z" fill="#020202"/>
<path d="M11.7061 16.1022C11.4964 16.6484 11.253 17.3018 10.7249 17.6187C10.0543 18.0209 9.67397 17.067 9.57381 16.5435C9.47365 16.02 8.68334 16.2446 8.78193 16.7618C8.95173 17.6531 9.66536 18.8002 10.7249 18.5099C11.7131 18.2392 12.1654 17.1883 12.498 16.3205C12.6873 15.8268 11.8931 15.6124 11.7061 16.1022Z" fill="#020202"/>
<path d="M11.5992 14.1107H12.9544C13.4834 14.1107 13.4842 13.2891 12.9544 13.2891H11.5992C11.0702 13.2891 11.0694 14.1107 11.5992 14.1107Z" fill="#020202"/>
<path d="M8.40204 14.4948L9.79253 14.3266C10.0148 14.3 10.201 14.1568 10.2033 13.9158C10.2057 13.7147 10.0124 13.4784 9.79253 13.505L8.40204 13.6732C8.17981 13.6998 7.99358 13.843 7.99123 14.084C7.98888 14.2851 8.18216 14.5214 8.40204 14.4948Z" fill="#020202"/>
<path d="M3.43402 10.7144C3.41446 10.367 3.32056 10.0031 3.11946 9.71437C3.0193 9.57117 2.8941 9.43893 2.73604 9.35912C2.53885 9.25896 2.33697 9.25974 2.121 9.25739V9.64864C2.28533 9.64081 2.45826 9.64473 2.61632 9.59308C2.77438 9.54144 2.92071 9.45067 3.04904 9.34269C3.28691 9.14315 3.44654 8.86145 3.53496 8.56645L3.1578 8.46238C3.07877 8.79964 3.14841 9.15567 3.36438 9.42876C3.56861 9.68776 3.87926 9.83409 4.20634 9.84974L4.1547 9.46554C3.855 9.50857 3.53966 9.57352 3.31274 9.78871C3.05999 10.0281 3.02869 10.3857 3.04356 10.7144C3.05451 10.9648 3.44576 10.9664 3.43481 10.7144C3.42463 10.4859 3.41603 10.2081 3.61008 10.0469C3.78458 9.90217 4.0428 9.874 4.25955 9.8427C4.35423 9.8294 4.41292 9.71359 4.39962 9.62829C4.38475 9.5297 4.30728 9.46319 4.20712 9.45849C3.75484 9.43658 3.43324 9.00543 3.53653 8.56567C3.59443 8.32075 3.23214 8.21981 3.15937 8.4616C3.09207 8.68618 2.97392 8.88884 2.79707 9.04534C2.70787 9.12437 2.5991 9.19245 2.48408 9.22453C2.36905 9.25661 2.24229 9.25113 2.12257 9.25739C1.87217 9.26991 1.86904 9.64473 2.12257 9.64864C2.27437 9.65099 2.43009 9.6369 2.55059 9.70263C2.65936 9.7621 2.7423 9.84583 2.80959 9.95146C2.9567 10.1807 3.03026 10.464 3.04434 10.7144C3.05843 10.9648 3.44967 10.9664 3.43559 10.7144H3.43402Z" fill="#020202"/>
<path d="M6.8266 10.7144C6.80704 10.367 6.71314 10.0031 6.51204 9.71437C6.41188 9.57117 6.28668 9.43893 6.12862 9.35912C5.93143 9.25896 5.72955 9.25974 5.51358 9.25739V9.64864C5.6779 9.64081 5.85083 9.64473 6.0089 9.59308C6.16696 9.54144 6.31329 9.45067 6.44161 9.34269C6.67949 9.14315 6.83912 8.86145 6.92754 8.56645L6.55038 8.46238C6.47135 8.79964 6.54099 9.15567 6.75696 9.42876C6.96119 9.68776 7.27184 9.83409 7.59892 9.84974L7.54728 9.46554C7.24758 9.50857 6.93224 9.57352 6.70531 9.78871C6.45257 10.0281 6.42127 10.3857 6.43614 10.7144C6.44709 10.9648 6.83834 10.9664 6.82738 10.7144C6.81721 10.4859 6.8086 10.2081 7.00266 10.0469C7.17716 9.90217 7.43538 9.874 7.65213 9.8427C7.74681 9.8294 7.8055 9.71359 7.79219 9.62829C7.77733 9.5297 7.69986 9.46319 7.5997 9.45849C7.14742 9.43658 6.82582 9.00543 6.92911 8.56567C6.98701 8.32075 6.62472 8.21981 6.55195 8.4616C6.48465 8.68618 6.3665 8.88884 6.18965 9.04534C6.10045 9.12437 5.99168 9.19245 5.87666 9.22453C5.76163 9.25661 5.63487 9.25113 5.51515 9.25739C5.26475 9.26991 5.26162 9.64473 5.51515 9.64864C5.66695 9.65099 5.82266 9.6369 5.94317 9.70263C6.05193 9.7621 6.13488 9.84583 6.20217 9.95146C6.34928 10.1807 6.42283 10.464 6.43692 10.7144C6.451 10.9648 6.84225 10.9664 6.82817 10.7144H6.8266Z" fill="#020202"/>
<path d="M5.87831 12.6801C5.82666 12.0651 5.40725 11.2653 4.69283 11.2896C3.9033 11.3162 3.41581 12.13 3.33365 12.828C3.24366 13.5893 3.57152 14.6285 4.50191 14.6238C5.40099 14.6191 5.86735 13.4266 5.87909 12.6809C5.88692 12.1519 5.0653 12.1519 5.05748 12.6809C5.05356 12.9524 4.8689 13.7771 4.50191 13.8022C4.09971 13.8296 4.11536 13.0784 4.15761 12.8374C4.19987 12.5964 4.37123 12.1433 4.67014 12.1284C4.89707 12.1175 5.04026 12.4735 5.05748 12.6801C5.1013 13.2028 5.92369 13.2075 5.87909 12.6801H5.87831Z" fill="#020202"/>
<path d="M9.90101 3.78872C9.7046 3.91157 9.53089 4.09936 9.48551 4.33333C9.43464 4.59155 9.5528 4.79422 9.67174 5.01253C9.77033 5.1925 9.80085 5.41238 9.70069 5.5994C9.59349 5.80128 9.44951 5.96874 9.45734 6.21131C9.46516 6.45388 9.85641 6.46327 9.84858 6.21131C9.84311 6.03916 9.98708 5.9077 10.0575 5.76059C10.1616 5.54228 10.1811 5.28875 10.1131 5.05557C10.0833 4.95306 10.034 4.85682 9.98082 4.76448C9.937 4.6878 9.88536 4.61033 9.86736 4.52269C9.83293 4.35446 9.96674 4.21048 10.0982 4.12753C10.311 3.99451 10.1154 3.65569 9.90101 3.7895V3.78872Z" fill="#020202"/>
<path d="M12.8496 3.74897C12.6735 3.87887 12.5515 4.05884 12.5178 4.27794C12.4842 4.49703 12.5468 4.70987 12.6712 4.90158C12.7627 5.04243 12.8543 5.15824 12.7768 5.32413C12.7338 5.41646 12.6798 5.50254 12.6414 5.598C12.5976 5.70677 12.5914 5.80927 12.607 5.9243C12.6211 6.02915 12.7557 6.08627 12.848 6.06123C12.9607 6.02993 12.999 5.92586 12.985 5.82023C12.9795 5.7811 13.017 5.70911 13.0405 5.66529C13.082 5.58626 13.1242 5.50958 13.1579 5.42663C13.2338 5.23805 13.2064 5.044 13.1117 4.86793C13.0421 4.73804 12.9216 4.61832 12.9012 4.4673C12.8824 4.33115 12.9357 4.17074 13.0491 4.08701C13.1336 4.02441 13.1767 3.91721 13.1195 3.8194C13.0702 3.73567 12.9372 3.68637 12.8519 3.74897H12.8496Z" fill="#020202"/>
<path d="M16.0413 10.2166C16.1 10.104 16.1281 9.97172 16.1508 9.84809C16.1813 9.68611 16.2095 9.5077 16.1688 9.34495C16.1477 9.25887 16.096 9.17593 16.0162 9.13367C15.9067 9.07577 15.7666 9.09377 15.6837 9.18845C15.5616 9.32695 15.5553 9.539 15.5491 9.71428C15.5452 9.81992 15.542 9.92321 15.5577 10.0288C15.571 10.1173 15.6039 10.2119 15.6649 10.2792C15.7189 10.3387 15.8042 10.3622 15.8816 10.3442C15.9513 10.3285 16.0053 10.2761 16.0413 10.2166C16.0937 10.129 16.064 9.99754 15.9708 9.94903C15.8777 9.90051 15.7596 9.92556 15.7032 10.0195C15.6782 10.0578 15.7032 10.0406 15.7776 9.96703H15.8816L15.9669 10.0335C15.9622 10.0249 15.9575 10.0171 15.9536 10.0085L15.9622 10.0288C15.9599 10.0226 15.9575 10.0155 15.9552 10.0085C15.9474 9.98581 15.9435 9.96233 15.9388 9.93886C15.9325 9.9099 15.9411 9.98815 15.9395 9.94042C15.9395 9.92555 15.938 9.91147 15.9372 9.8966C15.9372 9.87 15.9372 9.84339 15.9388 9.81679C15.9411 9.77062 15.9411 9.72445 15.9435 9.67829C15.945 9.64934 15.9466 9.62038 15.9489 9.59143C15.9505 9.57656 15.9521 9.5617 15.9536 9.54605C15.9575 9.51083 15.9466 9.59143 15.9505 9.56639C15.9521 9.55622 15.9536 9.54605 15.9552 9.53587C15.9599 9.50849 15.9661 9.4811 15.9748 9.4545C15.9763 9.4498 15.9787 9.4365 15.9826 9.43337C15.9857 9.43024 15.9568 9.48423 15.9716 9.46076C15.9841 9.43885 16.0092 9.41302 15.9646 9.4631C15.9685 9.45919 15.9716 9.45449 15.9763 9.45136C15.981 9.44823 15.9294 9.48658 15.9497 9.47249C15.9724 9.45763 15.8957 9.49205 15.9223 9.48501C15.8715 9.49831 15.8683 9.49049 15.8863 9.49049C15.9137 9.49049 15.8276 9.47797 15.8535 9.48579C15.8629 9.48814 15.8785 9.49519 15.8433 9.48032C15.8081 9.46545 15.8237 9.47171 15.8316 9.47641C15.8543 9.48892 15.7885 9.43963 15.8057 9.45684C15.8316 9.4811 15.7729 9.40755 15.794 9.44198C15.8151 9.4764 15.7791 9.39268 15.7877 9.42476C15.7909 9.43572 15.794 9.44589 15.7963 9.45684C15.7971 9.46076 15.7979 9.46545 15.7987 9.46936C15.8057 9.4991 15.7932 9.40755 15.7963 9.45136C15.8003 9.5077 15.7995 9.56326 15.794 9.6196C15.7924 9.63447 15.7909 9.64855 15.7893 9.66342C15.783 9.71428 15.7963 9.61412 15.7893 9.6642C15.7846 9.69628 15.7791 9.72837 15.7721 9.76045C15.7596 9.82305 15.7447 9.88565 15.7267 9.94746C15.7197 9.97094 15.7126 9.99441 15.7048 10.0171C15.7017 10.0249 15.6985 10.0335 15.6954 10.0414C15.6993 10.0296 15.7212 9.98659 15.704 10.0187C15.6571 10.1094 15.6774 10.2354 15.7744 10.2863C15.8644 10.334 15.992 10.3129 16.0421 10.2159L16.0413 10.2166Z" fill="#020202"/>
<path d="M18.4368 10.2166C18.4955 10.104 18.5236 9.97172 18.5463 9.84809C18.5768 9.68611 18.605 9.5077 18.5643 9.34495C18.5432 9.25887 18.4916 9.17593 18.4117 9.13367C18.3022 9.07577 18.1621 9.09377 18.0792 9.18845C17.9571 9.32695 17.9508 9.539 17.9446 9.71428C17.9407 9.81992 17.9375 9.92321 17.9532 10.0288C17.9665 10.1173 17.9994 10.2119 18.0604 10.2792C18.1144 10.3387 18.1997 10.3622 18.2771 10.3442C18.3468 10.3285 18.4008 10.2761 18.4368 10.2166C18.4892 10.129 18.4595 9.99754 18.3664 9.94903C18.2732 9.90051 18.1551 9.92556 18.0987 10.0195C18.0737 10.0578 18.0987 10.0406 18.1731 9.96703H18.2771L18.3624 10.0335C18.3577 10.0249 18.353 10.0171 18.3491 10.0085L18.3577 10.0288C18.3554 10.0226 18.353 10.0155 18.3507 10.0085C18.3429 9.98581 18.339 9.96233 18.3343 9.93886C18.328 9.9099 18.3366 9.98815 18.3351 9.94042C18.3351 9.92555 18.3335 9.91147 18.3327 9.8966C18.3327 9.87 18.3327 9.84339 18.3343 9.81679C18.3366 9.77062 18.3366 9.72445 18.339 9.67829C18.3405 9.64934 18.3421 9.62038 18.3444 9.59143C18.346 9.57656 18.3476 9.5617 18.3491 9.54605C18.353 9.51083 18.3421 9.59143 18.346 9.56639C18.3476 9.55622 18.3491 9.54605 18.3507 9.53587C18.3554 9.50849 18.3617 9.4811 18.3703 9.4545C18.3718 9.4498 18.3742 9.4365 18.3781 9.43337C18.3812 9.43024 18.3523 9.48423 18.3671 9.46076C18.3797 9.43885 18.4047 9.41302 18.3601 9.4631C18.364 9.45919 18.3671 9.45449 18.3718 9.45136C18.3765 9.44823 18.3249 9.48658 18.3452 9.47249C18.3679 9.45763 18.2912 9.49205 18.3178 9.48501C18.267 9.49831 18.2638 9.49049 18.2818 9.49049C18.3092 9.49049 18.2232 9.47797 18.249 9.48579C18.2584 9.48814 18.274 9.49519 18.2388 9.48032C18.2036 9.46545 18.2192 9.47171 18.2271 9.47641C18.2498 9.48892 18.184 9.43963 18.2012 9.45684C18.2271 9.4811 18.1684 9.40755 18.1895 9.44198C18.2106 9.4764 18.1746 9.39268 18.1832 9.42476C18.1864 9.43572 18.1895 9.44589 18.1919 9.45684C18.1926 9.46076 18.1934 9.46545 18.1942 9.46936C18.2012 9.4991 18.1887 9.40755 18.1919 9.45136C18.1958 9.5077 18.195 9.56326 18.1895 9.6196C18.1879 9.63447 18.1864 9.64855 18.1848 9.66342C18.1786 9.71428 18.1919 9.61412 18.1848 9.6642C18.1801 9.69628 18.1746 9.72837 18.1676 9.76045C18.1551 9.82305 18.1402 9.88565 18.1222 9.94746C18.1152 9.97094 18.1081 9.99441 18.1003 10.0171C18.0972 10.0249 18.094 10.0335 18.0909 10.0414C18.0948 10.0296 18.1167 9.98659 18.0995 10.0187C18.0526 10.1094 18.0729 10.2354 18.1699 10.2863C18.2599 10.334 18.3875 10.3129 18.4376 10.2159L18.4368 10.2166Z" fill="#020202"/>
<path d="M15.5215 11.7393C15.6311 12.9592 16.5888 14.0665 17.9081 13.7323C19.0138 13.4514 19.7611 12.2574 19.7658 11.1587C19.7681 10.6298 18.9465 10.629 18.9441 11.1587C18.941 11.8489 18.5208 12.604 17.8698 12.881C17.0544 13.2284 16.4128 12.5085 16.3431 11.7393C16.2962 11.2166 15.4738 11.2119 15.5215 11.7393Z" fill="#020202"/>
</svg>
