<svg width="20" height="19" viewBox="0 0 20 19" fill="none" xmlns="http://www.w3.org/2000/svg">
<path d="M18.2408 1.16259L8.71895 10.6863M1.61314 7.20953L17.9596 1.02158C18.0186 0.999018 18.0828 0.99402 18.1446 1.00719C18.2063 1.02035 18.2629 1.05112 18.3076 1.09577C18.3522 1.14043 18.383 1.19705 18.3961 1.25881C18.4093 1.32057 18.4043 1.38483 18.3817 1.44381L12.195 17.7935C12.1704 17.8556 12.1274 17.9087 12.0717 17.9456C12.0161 17.9825 11.9504 18.0014 11.8837 17.9999C11.8169 17.9984 11.7522 17.9765 11.6983 17.9371C11.6444 17.8977 11.6038 17.8427 11.582 17.7796L8.82765 10.9908C8.79554 10.8946 8.74149 10.8072 8.66979 10.7355C8.59808 10.6637 8.51068 10.6097 8.41449 10.5776L1.62704 7.82509C1.56309 7.80381 1.50729 7.76329 1.46726 7.70907C1.42723 7.65485 1.40492 7.58959 1.4034 7.5222C1.40188 7.45482 1.42122 7.38861 1.45876 7.33264C1.49631 7.27667 1.55023 7.23367 1.61314 7.20953Z" stroke="#B6B6B6" stroke-width="1.5" stroke-linecap="round" stroke-linejoin="round"/>
</svg>
