<svg width="87" height="48" viewBox="0 0 87 48" fill="none" xmlns="http://www.w3.org/2000/svg">
<g clip-path="url(#clip0_100_10282)">
<path d="M7.49166 12.7897C5.86708 17.0459 4.8227 21.4709 4.42352 26.0092C4.28659 27.5674 6.72811 27.5582 6.86503 26.0092C7.24565 21.6929 8.30163 17.4829 9.84498 13.437C10.4043 11.9736 8.04402 11.3401 7.49166 12.7897Z" fill="black"/>
<path d="M9.39706 14.2691C10.3138 13.8738 11.6622 13.1687 12.6973 13.5016C13.8345 13.8669 13.1313 15.2517 12.6439 15.9037C11.3419 17.6422 8.76579 18.9623 6.70257 19.4895C5.18242 19.8779 5.82761 22.2245 7.3524 21.8337C10.5621 21.013 15.0669 18.5323 15.6796 14.9512C15.9557 13.3398 15.2386 11.8255 13.6511 11.2544C11.7875 10.5816 9.87051 11.4324 8.16934 12.1676C6.73274 12.7872 7.97439 14.8841 9.4017 14.2668L9.39706 14.2691Z" fill="black"/>
<path d="M19.3881 10.0875C17.7636 14.3438 16.7192 18.7688 16.32 23.3071C16.1831 24.8653 18.6246 24.856 18.7615 23.3071C19.1421 18.9907 20.1981 14.7807 21.7415 10.7349C22.3008 9.27142 19.9405 8.63796 19.3881 10.0875Z" fill="black"/>
<path d="M21.296 11.567C22.2127 11.1717 23.5611 10.4665 24.5962 10.7994C25.7334 11.1647 25.0302 12.5496 24.5428 13.2015C23.2408 14.9401 20.6647 16.2602 18.6015 16.7873C17.0813 17.1757 17.7265 19.5223 19.2513 19.1316C22.461 18.3109 26.9658 15.8302 27.5785 12.249C27.8547 10.6376 27.1375 9.1233 25.5501 8.55226C23.6864 7.87949 21.7694 8.73028 20.0683 9.46547C18.6317 10.0851 19.8733 12.182 21.3006 11.5647L21.296 11.567Z" fill="black"/>
<path d="M18.2722 19.2463C20.0128 20.8392 21.967 22.0391 24.1439 22.9477C25.5921 23.5511 26.2234 21.1999 24.7937 20.6034C23.0253 19.8659 21.41 18.8186 19.9989 17.5286C18.8431 16.472 17.1118 18.1875 18.2722 19.2486V19.2463Z" fill="black"/>
<path d="M28.5228 13.9949C27.9635 16.1196 28.2025 18.6141 30.3887 19.7007C32.6051 20.8035 35.2207 19.6938 36.8755 18.1102C38.8667 16.2051 40.1548 13.1904 39.8577 10.423C39.5792 7.84756 37.2932 6.39798 34.8006 6.86961C31.4494 7.50308 29.3977 10.9894 28.5228 13.9949C28.0842 15.5 30.4398 16.1427 30.8761 14.6423C31.4842 12.55 32.8952 9.6601 35.3089 9.24164C37.8595 8.79775 37.6158 11.6507 37.089 13.2782C36.4693 15.1925 34.8819 17.3888 32.7281 17.6848C30.7276 17.9599 30.47 16.1774 30.8738 14.6423C31.2776 13.1072 28.9173 12.4806 28.5205 13.9949H28.5228Z" fill="black"/>
<path d="M44.0403 6.46134C42.1326 8.37098 39.7677 11.899 41.3899 14.6432C42.7917 17.0152 46.013 16.6291 47.9695 15.2466C50.2509 13.6352 52.1331 10.3061 51.3997 7.46008C51.0516 6.10299 49.9677 5.00714 48.5892 4.69272C46.8555 4.2997 45.2518 5.34699 44.038 6.45902C42.8242 7.57106 44.6089 9.23795 45.7647 8.17909C46.4215 7.57568 47.4844 6.67403 48.4104 7.21733C49.0858 7.61267 49.1647 8.42647 49.0765 9.13854C48.8607 10.8378 47.7188 12.6226 46.2242 13.478C45.4143 13.9404 43.85 14.3565 43.4021 13.2098C42.7499 11.5406 44.7157 9.22639 45.7647 8.17678C46.8741 7.06706 45.1497 5.34699 44.038 6.45671L44.0403 6.46134Z" fill="black"/>
<path d="M54.6441 13.9041C55.3728 10.746 56.2083 7.61795 57.1436 4.51536L56.582 5.2413C59.6524 3.90039 62.8691 2.93632 66.174 2.36528C67.7197 2.0971 67.0629 -0.244874 65.5241 0.0209962C63.7742 0.323857 62.0475 0.730754 60.351 1.25325C59.4505 1.53068 58.5593 1.84047 57.6774 2.17801C56.9649 2.45082 55.9809 2.70282 55.3496 3.13977C54.7183 3.57672 54.6139 4.43907 54.4074 5.1442C54.1567 5.99499 53.9153 6.84808 53.6833 7.70349C53.1796 9.54609 52.7178 11.3956 52.2884 13.2567C51.938 14.7803 54.289 15.4299 54.6418 13.9041H54.6441Z" fill="black"/>
<path d="M55.6513 9.96187C57.9396 9.1527 60.2488 8.40364 62.5743 7.71006C64.0759 7.26387 63.4354 4.91496 61.9245 5.36578C59.5967 6.05704 57.2898 6.80842 55.0014 7.61759C53.53 8.13777 54.1636 10.4867 55.6513 9.96187Z" fill="black"/>
<path d="M3.8366 35.4574C1.77802 37.6514 -0.345545 40.9205 0.0466756 44.0716C0.339101 46.4113 2.23754 47.9973 4.59087 47.9996C7.41996 47.9996 9.88005 46.0183 11.3584 43.7618C12.8368 41.5054 13.9183 38.1809 12.6883 35.5707C11.9758 34.061 10.4278 33.023 8.74748 32.9744C6.81887 32.919 5.13162 34.1628 3.8366 35.4551C2.72492 36.5649 4.45162 38.2849 5.5633 37.1752C6.5218 36.2181 8.04659 34.8818 9.50407 35.6031C10.5461 36.121 10.8107 37.2561 10.7643 38.3219C10.6552 40.798 9.09561 43.4937 6.98133 44.7976C5.72111 45.5744 3.35851 46.1755 2.61352 44.4022C1.6202 42.0372 4.07564 38.7589 5.56562 37.1729C6.63784 36.0308 4.91579 34.3061 3.83892 35.4528L3.8366 35.4574Z" fill="black"/>
<path d="M16.9817 43.2609C17.5944 40.0797 18.3139 36.9216 19.1354 33.7866L18.5738 34.5126C21.5979 33.0584 24.7635 31.9718 28.0475 31.2782C29.5838 30.9545 28.934 28.6102 27.3976 28.9339C25.6593 29.2992 23.9489 29.7685 22.2732 30.3557C21.382 30.6678 20.5047 31.01 19.6367 31.3776C18.9173 31.6805 17.9774 31.9579 17.3414 32.4133C16.7055 32.8688 16.6313 33.7057 16.4456 34.4316C16.2274 35.2917 16.0162 36.1517 15.8143 37.0141C15.3803 38.8728 14.9858 40.7409 14.6261 42.6135C14.3313 44.1417 16.6846 44.7983 16.9794 43.2609H16.9817Z" fill="black"/>
<path d="M17.8103 39.2541C20.0685 38.364 22.3476 37.5294 24.6475 36.7526C26.1282 36.2532 25.4923 33.9043 23.9977 34.4083C21.6977 35.1851 19.4187 36.0197 17.1605 36.9098C15.717 37.4785 16.3459 39.8321 17.8103 39.2541Z" fill="black"/>
<path d="M37.1149 24.7881C35.857 26.5891 35.4694 28.7484 35.0586 30.8592C34.5736 33.3491 34.2394 35.8622 34.0607 38.3937C33.9516 39.9566 36.3931 39.9496 36.5022 38.3937C36.6647 36.0772 36.971 33.7861 37.4143 31.5065C37.7833 29.5969 38.0873 27.6433 39.2245 26.0157C40.1227 24.728 38.0084 23.5119 37.1172 24.7881H37.1149Z" fill="black"/>
<path d="M38.8345 26.45C39.7698 26.0084 41.0185 25.301 42.1 25.5437C43.2789 25.8096 42.6639 27.2222 42.2114 27.8926C40.9976 29.6959 38.4307 31.127 36.3861 31.7235C34.8822 32.1628 35.5227 34.5093 37.0359 34.0678C40.2294 33.1361 44.6297 30.5375 45.1611 26.9378C45.4002 25.3287 44.6482 23.8191 43.0538 23.285C41.1786 22.6562 39.2732 23.5601 37.5999 24.3485C36.1818 25.0189 37.4188 27.1158 38.8322 26.4477L38.8345 26.45Z" fill="black"/>
<path d="M36.0726 34.174C37.8666 35.7068 39.8463 36.8604 42.0534 37.695C43.5225 38.2522 44.1584 35.901 42.7033 35.3507C40.9116 34.671 39.2545 33.6977 37.7993 32.4539C36.6134 31.4413 34.8774 33.1521 36.0726 34.174Z" fill="black"/>
<path d="M70.6206 15.1689L63.2474 23.0502C62.5673 23.7762 62.9433 24.7356 63.7858 25.0824C66.3921 26.1528 69.0819 26.9435 71.8484 27.4752C73.3824 27.7711 74.0416 25.4269 72.4982 25.1309C69.7318 24.5992 67.0419 23.8085 64.4356 22.7381L64.9741 24.7703L72.3473 16.889C73.4173 15.7446 71.6952 14.0222 70.6206 15.1689Z" fill="black"/>
<path d="M75.9981 14.68L85.5298 12.3172C87.0522 11.9404 86.4071 9.59378 84.8799 9.97294L75.3483 12.3357C73.8258 12.7126 74.471 15.0592 75.9981 14.68Z" fill="black"/>
<path d="M78.8411 13.2959L77.4788 25.008C77.2978 26.5593 79.7416 26.5478 79.9203 25.008L81.2827 13.2959C81.4637 11.7446 79.0198 11.7561 78.8411 13.2959Z" fill="black"/>
<path d="M63.4259 16.3725C63.2564 18.7607 62.7041 21.1698 62.3327 23.5348C62.0032 25.6341 61.6852 27.731 61.3209 29.8256C61.054 31.3561 63.4073 32.0126 63.6742 30.4729C64.0618 28.2465 64.4006 26.0132 64.7511 23.7799C65.1363 21.3316 65.691 18.8463 65.8674 16.3748C65.9788 14.8143 63.5373 14.8212 63.4259 16.3748V16.3725Z" fill="black"/>
<path d="M48.076 24.2499L58.6939 20.8629C60.1838 20.3867 59.5479 18.0378 58.044 18.5186L47.4262 21.9056C45.9362 22.3818 46.5721 24.7308 48.076 24.2499Z" fill="black"/>
<path d="M48.7583 28.8946L55.6488 26.9202C57.1551 26.4879 56.5145 24.1413 54.999 24.5759L48.1084 26.5503C46.6022 26.9826 47.2428 29.3292 48.7583 28.8946Z" fill="black"/>
<path d="M48.5517 34.8515C51.9285 33.9244 55.3007 32.9765 58.6914 32.098C60.2115 31.7049 59.5664 29.3583 58.0416 29.7537C54.6508 30.6322 51.2787 31.5801 47.9018 32.5072C46.3887 32.921 47.0315 35.2699 48.5517 34.8515Z" fill="black"/>
</g>
<defs>
<clipPath id="clip0_100_10282">
<rect width="86.4" height="48" fill="white"/>
</clipPath>
</defs>
</svg>
